<svg xmlns="http://www.w3.org/2000/svg" enable-background="new 0 0 100 100" viewBox="0 0 100 100"><path d="M95,22c0-7.2-5.8-13-13-13c-5.2,0-9.7,3.1-11.8,7.5C64.3,13,57.4,11,50,11s-14.3,2-20.2,5.5C27.7,12.1,23.2,9,18,9C10.8,9,5,14.8,5,22c0,5.7,3.6,10.5,8.7,12.2C11.3,39.3,10,45,10,51c0,22.1,17.9,40,40,40s40-17.9,40-40c0-6-1.3-11.7-3.7-16.8C91.4,32.5,95,27.7,95,22z M9,22c0-5,4-9,9-9c3.8,0,7.1,2.4,8.4,5.7c-4.3,3.2-8,7.3-10.8,11.9C11.8,29.6,9,26.1,9,22z M66,83.2C61.2,85.6,55.8,87,50,87s-11.2-1.4-16-3.8V64c0-8.8,7.2-16,16-16s16,7.2,16,16V83.2z M70,80.9V64c0-11-9-20-20-20s-20,9-20,20v16.9C20.4,74.5,14,63.5,14,51c0-19.9,16.2-36,36-36s36,16.1,36,36C86,63.5,79.6,74.5,70,80.9z M84.4,30.7c-2.7-4.7-6.4-8.8-10.8-12c1.3-3.3,4.6-5.7,8.4-5.7c5,0,9,4,9,9C91,26.1,88.2,29.6,84.4,30.7z M57.8,56.1c-0.3-0.7-1-1.1-1.8-1.1H44c-0.8,0-1.5,0.4-1.8,1.1l-2,4c-0.3,0.7-0.3,1.5,0.2,2.1l6,8c0.4,0.5,1,0.8,1.6,0.8v4.6l-4.6,1.5c-1,0.4-1.6,1.5-1.3,2.5c0.4,1,1.5,1.6,2.5,1.3l5.4-1.8l5.4,1.8C55.6,81,55.8,81,56,81c0.8,0,1.6-0.5,1.9-1.4c0.3-1.1-0.2-2.2-1.3-2.5L52,75.6V71c0.6,0,1.2-0.3,1.6-0.8l6-8c0.5-0.6,0.5-1.4,0.2-2.1L57.8,56.1z M51,67h-2l-4.7-6.2l0.9-1.8h9.5l0.9,1.8L51,67z M36,40c0,1.1-0.9,2-2,2s-2-0.9-2-2s0.9-2,2-2S36,38.9,36,40z M70,40c0,1.1-0.9,2-2,2s-2-0.9-2-2s0.9-2,2-2S70,38.9,70,40z"/></svg>