<svg xmlns="http://www.w3.org/2000/svg" width="32" height="32" viewBox="0 0 32 32"><g transform="translate(0 -1020.362)"><path fill="none" stroke="#373748" d="m 15.59098,1022.457 c -6.00706,0 -16.47343,16.7934 -12.01413,24.0004 4.45931,7.2068 19.56897,7.2068 24.02825,0 4.45928,-7.2071 -6.00706,-24.0004 -12.01412,-24.0004 z"/><path fill="#ffd42a" fill-rule="evenodd" stroke="#373748" stroke-linecap="round" d="m 14.49918,1037.6824 -1.09181,1.0967 -2.18359,2.1936 4.3672,4.387 4.36719,-4.387 -2.18359,-2.1936 -1.09181,-1.0967 z"/><path fill="#ffd42a" fill-rule="evenodd" stroke="#373748" d="m 11.38603,1040.9078 4.20495,1.3206 4.20494,-1.3206"/><path fill="#f2f2f2" stroke="#373748" stroke-linecap="round" d="m 14.133965,1032.9298 a 2.0881715,2.0819738 0 0 1 -1.753149,2.055 2.0881715,2.0819738 0 0 1 -2.315693,-1.3956 2.0881715,2.0819738 0 0 1 1.010096,-2.5028" color="#000" overflow="visible" style="isolation:auto;mix-blend-mode:normal"/><path fill="#f2f2f2" stroke="#373748" stroke-linecap="round" d="m -17.179286,1032.9298 a 2.0881715,2.0819738 0 0 1 -1.753149,2.055 2.0881715,2.0819738 0 0 1 -2.315693,-1.3956 2.0881715,2.0819738 0 0 1 1.010096,-2.5028" color="#000" overflow="visible" transform="scale(-1 1)" style="isolation:auto;mix-blend-mode:normal"/><path fill="none" stroke="#373748" stroke-linecap="round" stroke-linejoin="round" d="M-11.987231-1032.968a.000030035309.000014999764 0 0 1-.00003 0 .000030035309.000014999764 0 0 1-.00003 0 .000030035309.000014999764 0 0 1 .00003 0 .000030035309.000014999764 0 0 1 .00003 0zM-19.315279-1032.968a.000030035309.000014999764 0 0 1-.000031 0 .000030035309.000014999764 0 0 1-.00003 0 .000030035309.000014999764 0 0 1 .00003 0 .000030035309.000014999764 0 0 1 .000031 0z" color="#000" overflow="visible" transform="scale(-1)" style="isolation:auto;mix-blend-mode:normal"/><path fill="none" stroke="#373748" stroke-linecap="round" stroke-linejoin="round" d="M14.38957 1022.457c-1.20142-1.2-2.81581-2.337-7.62146-.9749M14.27693 1022.5321c-1.20141-1.2001-4.65547.1875-7.97444 2.1075M10.19139 1029.8316l5.39959 3.9193 5.42513-3.8652"/></g></svg>