<svg xmlns="http://www.w3.org/2000/svg" enable-background="new 0 0 100 100" viewBox="0 0 100 100"><path d="M41,43.7v-2.1c1.2-0.5,2.1-1.3,2.7-2.5l1.2-2.5c0.8-1.6,0.7-3.5-0.2-5.1c-1-1.6-2.6-2.5-4.5-2.5h-2.5c-1.8,0-3.5,0.9-4.5,2.5c-1,1.6-1.1,3.5-0.2,5.1l1.2,2.5c0.6,1.2,1.5,2,2.7,2.5v2.1c0,1.1,0.9,2,2,2S41,44.8,41,43.7z M37.9,37.2l-1.2-2.5c-0.3-0.6,0-1,0.1-1.2s0.4-0.6,1.1-0.6h2.5c0.6,0,1,0.4,1.1,0.6s0.3,0.7,0.1,1.2l-1.2,2.5c-0.3,0.6-0.9,0.7-1.1,0.7S38.2,37.9,37.9,37.2z"/><circle cx="49" cy="26.7" r="2"/><circle cx="29" cy="26.7" r="2"/><path d="M93,44.7c-7.7,0-14,6.3-14,14v4c0,10.3-7.9,18.9-18,19.9V67.7c0-6.3-2.7-11.9-6.9-16c2.5-1.5,4.8-3.3,6.6-5.4l9.7,3.2c0.2,0.1,0.4,0.1,0.6,0.1c0.8,0,1.6-0.5,1.9-1.4c0.3-1.1-0.2-2.2-1.3-2.5l-8.5-2.8c1.6-2.6,2.5-5.6,2.8-8.7l5.3-0.6c1.1-0.1,1.9-1.1,1.8-2.2c-0.1-1.1-1.1-1.9-2.2-1.8L66,30.2V11.3c0-2.2-1.2-4.3-3.2-5.3s-4.4-0.9-6.2,0.4l-7.2,5c-3.3-1.2-6.8-1.8-10.4-1.8s-7.1,0.6-10.4,1.8l-7.2-5C19.6,5.1,17.2,5,15.2,6S12,9.1,12,11.3v18.9l-4.8-0.5c-1.1-0.1-2.1,0.7-2.2,1.8c-0.1,1.1,0.7,2.1,1.8,2.2l5.3,0.6c0.2,3.1,1.2,6,2.8,8.7l-8.5,2.8c-1,0.4-1.6,1.5-1.3,2.5c0.3,0.8,1.1,1.4,1.9,1.4c0.2,0,0.4,0,0.6-0.1l9.7-3.2c1.8,2.1,4,3.9,6.6,5.4c-4.2,4-6.9,9.7-6.9,16v21c0,3.3,2.7,6,6,6h32c3.3,0,6-2.7,6-6v-2.1c12.3-1,22-11.3,22-23.9v-4c0-5.5,4.5-10,10-10c1.1,0,2-0.9,2-2C95,45.6,94.1,44.7,93,44.7z M58.8,9.7c0.6-0.4,1.4-0.5,2.1-0.1c0.7,0.4,1.1,1,1.1,1.8v9.3c-2.1-2.9-4.9-5.4-8.3-7.3L58.8,9.7z M16,11.3c0-0.8,0.4-1.4,1.1-1.8c0.7-0.3,1.4-0.3,2.1,0.1l5.2,3.6c-3.4,1.9-6.3,4.4-8.3,7.3V11.3z M21.5,44.9l4.2-1.4c1-0.3,1.6-1.5,1.3-2.5c-0.4-1-1.5-1.6-2.5-1.3l-5.6,1.9c-1.4-2.1-2.3-4.5-2.6-7l8.7,1c0.1,0,0.1,0,0.2,0c1,0,1.9-0.8,2-1.8c0.1-1.1-0.7-2.1-1.8-2.2l-9.1-1C17,24.2,21.9,18.4,29,15.5c3.1-1.2,6.5-1.9,10-1.9s6.8,0.6,10,1.9c7.2,2.9,12.1,8.7,12.9,15.1l-9.1,1c-1.1,0.1-1.9,1.1-1.8,2.2c0.1,1,1,1.8,2,1.8c0.1,0,0.2,0,0.2,0l8.7-1c-0.3,2.5-1.2,4.8-2.6,7l-5.6-1.9c-1-0.3-2.2,0.2-2.5,1.3c-0.3,1,0.2,2.2,1.3,2.5l4.2,1.4C52.3,49.1,46,51.7,39,51.7S25.7,49.1,21.5,44.9z M57,88.7c0,1.1-0.9,2-2,2h-4v-14c0-1.1-0.9-2-2-2s-2,0.9-2,2v14h-6v-18c0-1.1-0.9-2-2-2s-2,0.9-2,2v18h-6v-14c0-1.1-0.9-2-2-2s-2,0.9-2,2v14h-4c-1.1,0-2-0.9-2-2v-21c0-5.7,2.7-10.8,6.8-14.1c3.4,1.3,7.2,2.1,11.2,2.1s7.8-0.8,11.2-2.1C54.3,56.9,57,62,57,67.7V88.7z"/></svg>