<svg xmlns="http://www.w3.org/2000/svg" viewBox="0 0 64 64"><g data-name="husky dog"><path d="M51.73,33.81a19.49,19.49,0,0,0-1.79-6.43,2.56,2.56,0,0,0-.11-.24,19.28,19.28,0,0,0-2-3.22c-.2-.28-.42-.55-.65-.82s-.37-.43-.56-.64c-.43-.47-.88-.92-1.36-1.35a19.65,19.65,0,0,0-1.77-1.42,4.56,4.56,0,0,0-.39-.27A18.69,18.69,0,0,0,40,17.67c-.36-.16-.72-.3-1.08-.44s-.78-.27-1.18-.39-.73-.21-1.1-.29l-.11,0-.92-.19c-.34-.07-.69-.12-1.05-.16a19.63,19.63,0,0,0-5.08,0c-.35,0-.7.09-1,.16l-.93.19-.09,0-.43.11-.59.17-.4.12c-.31.09-.62.2-.93.32s-.72.28-1.07.44-.7.32-1,.5-.51.26-.76.41l-.38.22a17.88,17.88,0,0,0-1.57,1.05l-.45.34-.31.25c-.17.13-.34.27-.5.42s-.43.38-.65.59l-.23.23a2.66,2.66,0,0,0-.23.24,1.15,1.15,0,0,0-.22.22,2.5,2.5,0,0,0-.23.23l-.21.24a1.68,1.68,0,0,0-.18.21c-.17.18-.33.37-.48.56L16,24.1h0a19.37,19.37,0,0,0-1.83,3,2.56,2.56,0,0,0-.11.24,19.24,19.24,0,0,0-1.78,6.43L10,55.9A1,1,0,0,0,10.77,57l21,5a.9.9,0,0,0,.46,0l21-5A1,1,0,0,0,54,55.9ZM32,60,12.08,55.23,14.26,34A17.84,17.84,0,0,1,28.78,18.29h0A17.84,17.84,0,0,1,49.74,34l2.18,21.22Z"/><circle cx="24.5" cy="33.5" r="1.5"/><circle cx="39.5" cy="33.5" r="1.5"/><path d="M33.33,45H30.67a3.79,3.79,0,0,0-2.53.93A3.17,3.17,0,0,0,27,48.33c0,1.79,2.26,2.9,4,3.24a5.36,5.36,0,0,0,1,.1,6,6,0,0,0,1-.1,7.5,7.5,0,0,0,2-.7,3.09,3.09,0,0,0,2-2.54A3.52,3.52,0,0,0,33.33,45Zm.75,4.1a5,5,0,0,1-2.08.57c-1.33,0-3-1-3-1.34a1.16,1.16,0,0,1,.46-.9A1.79,1.79,0,0,1,30.67,47h2.66A1.55,1.55,0,0,1,35,48.33C35,48.4,34.8,48.72,34.08,49.1Z"/><path d="M35,48.33c0,.07-.2.39-.92.77a5,5,0,0,1-2.08.57c-1.33,0-3-1-3-1.34a1.16,1.16,0,0,1,.46-.9A1.79,1.79,0,0,1,30.67,47h2.66A1.55,1.55,0,0,1,35,48.33Z" opacity=".5"/><path d="M29.46,16.17C28.52,9.13,26.11,2,22,2c-5.2,0-8,11.59-8,22.5,0,1,0,2,.06,2.88,0,.09,0,.17,0,.25a1,1,0,0,0,.8.93l.2,0A1,1,0,0,0,16,28a17.86,17.86,0,0,1,12.81-9.73h0a1,1,0,0,0,.8-1.09C29.55,16.86,29.51,16.51,29.46,16.17Zm-2.06.37-.43.11-.59.17a3,3,0,0,0-.4.12c-.31.1-.62.2-.93.32s-.72.28-1.07.44-.7.32-1,.5-.51.26-.76.41-.26.14-.38.22a17.88,17.88,0,0,0-1.57,1.05l-.45.34-.31.25c-.17.13-.33.27-.5.42s-.43.38-.65.59-.31.3-.46.47a1.15,1.15,0,0,0-.22.22c-.16.15-.3.31-.44.47a1.68,1.68,0,0,0-.18.21c-.17.18-.33.37-.48.56L16,24.1C16.07,12.56,19.2,4,22,4c1.9,0,4.42,4.38,5.49,12.52Z"/><path d="M27.49,16.52l-.09,0-.43.11-.59.17-.4.12c-.31.09-.62.2-.93.32s-.72.28-1.07.44-.7.32-1,.5-.51.26-.76.41l-.38.22a17.88,17.88,0,0,0-1.57,1.05l-.45.34-.31.25c-.17.13-.34.27-.5.42s-.43.38-.65.59a4.06,4.06,0,0,0-.46.47,1.15,1.15,0,0,0-.22.22,3.84,3.84,0,0,0-.44.47,1.68,1.68,0,0,0-.18.21,6.2,6.2,0,0,0-.48.56L16,24.1C16.07,12.56,19.2,4,22,4,23.9,4,26.42,8.38,27.49,16.52Z" opacity=".5"/><path d="M42,2c-4.11,0-6.52,7.13-7.46,14.17,0,.34-.09.69-.13,1a1,1,0,0,0,.81,1.09A17.8,17.8,0,0,1,48,28a1,1,0,0,0,.9.56l.2,0a1,1,0,0,0,.8-.93c0-.08,0-.16,0-.25,0-.89.06-1.83.06-2.88C50,13.59,47.2,2,42,2Zm5.21,21.1c-.18-.22-.37-.43-.56-.64-.43-.47-.88-.92-1.36-1.35a19.65,19.65,0,0,0-1.77-1.42,4.56,4.56,0,0,0-.39-.27A18.69,18.69,0,0,0,40,17.67c-.36-.16-.72-.3-1.08-.44s-.78-.27-1.18-.39-.73-.21-1.1-.29l-.11,0C37.58,8.38,40.1,4,42,4c2.8,0,5.93,8.57,6,20.1l-.14-.18C47.66,23.64,47.44,23.37,47.21,23.1Z"/><path d="M48,24.1l-.14-.18c-.2-.28-.42-.55-.65-.82s-.36-.43-.56-.64c-.43-.47-.88-.92-1.36-1.35a19.65,19.65,0,0,0-1.77-1.42,4.56,4.56,0,0,0-.39-.27A18.69,18.69,0,0,0,40,17.67c-.36-.16-.72-.3-1.08-.44s-.78-.27-1.18-.39-.73-.21-1.1-.29l-.11,0C37.58,8.38,40.1,4,42,4,44.8,4,47.93,12.57,48,24.1Z" opacity=".5"/><path d="M28 56h0A4.81 4.81 0 0 1 24 53.72l-2.81-4.49A2.62 2.62 0 0 0 19 48a1 1 0 0 1 0-2 4.58 4.58 0 0 1 3.91 2.17l2.81 4.49A2.82 2.82 0 0 0 28 54a1 1 0 0 1 0 2zM32 56a1 1 0 0 1-1-1V51a1 1 0 0 1 2 0v4A1 1 0 0 1 32 56zM36 56a1 1 0 0 1 0-2 2.82 2.82 0 0 0 2.31-1.33l2.81-4.49A4.58 4.58 0 0 1 45 46a1 1 0 0 1 0 2 2.62 2.62 0 0 0-2.21 1.23L40 53.72A4.81 4.81 0 0 1 36 56z"/><path d="M28.14 56H28a1 1 0 1 1 .14-2h0l.2 0a1 1 0 0 1 .83 1A1 1 0 0 1 28.14 56zM36 56h-.14a1 1 0 0 1 0-2 .93.93 0 0 1 .8.21A1 1 0 0 1 37 55h0A1 1 0 0 1 36 56z"/><path d="M36,56H28a1,1,0,0,1,0-2h8a1,1,0,0,1,0,2Z"/></g></svg>