<svg xmlns="http://www.w3.org/2000/svg" viewBox="0 0 28 28"><linearGradient id="a" x1="878.054" x2="884.97" y1="57.375" y2="49.25" gradientTransform="matrix(3.0757 0 0 -3.0757 -2697.398 177.825)" gradientUnits="userSpaceOnUse"><stop offset="0" stop-color="#72BF53"/><stop offset="1" stop-color="#0290A4"/></linearGradient><path fill="url(#a)" d="M5.917 0h16.165A5.917 5.917 0 0 1 28 5.917v16.165A5.917 5.917 0 0 1 22.083 28H5.917A5.917 5.917 0 0 1 0 22.083V5.917A5.917 5.917 0 0 1 5.917 0z"/><path fill="#fff" d="M14 20.499c-.684 0-1.366-.26-1.887-.78l-3.832-3.833C7.777 15.383 7.5 14.713 7.5 14s.277-1.383.781-1.886l3.832-3.833a2.671 2.671 0 0 1 3.773 0l3.832 3.833c.505.504.782 1.173.782 1.886s-.277 1.383-.781 1.886l-3.832 3.833c-.521.52-1.203.78-1.887.78zm0-11.998c-.428 0-.854.163-1.18.488l-3.832 3.833c-.315.314-.488.733-.488 1.178s.173.864.488 1.179l3.832 3.833c.65.65 1.709.65 2.359 0l3.832-3.833c.316-.315.489-.734.489-1.179s-.173-.864-.488-1.179L15.18 8.988A1.666 1.666 0 0 0 14 8.501z"/><path fill="#fff" d="M15.5 14.375a.502.502 0 0 1-.354-.146L14 13.082l-1.146 1.146a.5.5 0 0 1-.707-.707l1.5-1.5a.5.5 0 0 1 .707 0l1.5 1.5a.5.5 0 0 1-.354.854z"/><path fill="#fff" d="M14 16.5a.5.5 0 0 1-.5-.5v-3.216a.5.5 0 0 1 1 0V16a.5.5 0 0 1-.5.5z"/></svg>