<svg xmlns="http://www.w3.org/2000/svg" width="655.359" height="655.359" fill-rule="evenodd" clip-rule="evenodd" image-rendering="optimizeQuality" shape-rendering="geometricPrecision" text-rendering="geometricPrecision" viewBox="0 0 6.827 6.827"><rect width="6.827" height="6.827" fill="#d42028" rx="1.456" ry="1.456"/><path fill="#fff" d="M2.4952 1.7673c-0.514646,0.203854 -0.864075,0.596531 -0.961787,1.12542 -0.0599488,0.325039 -0.0371614,0.679272 0.106236,0.982732 0.0319646,0.0674213 0.0703346,0.132394 0.115894,0.192421 0.0221535,0.0293386 0.0458504,0.0573504 0.0715945,0.0839291 0.0457047,-0.0163622 0.0897323,-0.0366732 0.131768,-0.0604409 0.173953,-0.0981969 0.302248,-0.249429 0.451224,-0.376535 -0.497917,-0.576846 0.0297756,-1.2916 0.68978,-1.45094 0.614531,-0.14813 1.4473,0.107496 1.63372,0.73978 0.0770354,0.261831 0.0265945,0.55126 -0.186913,0.740862 -0.111669,0.099248 -0.253457,0.164776 -0.403268,0.1915 -0.0875394,0.0155315 -0.177339,0.0179173 -0.265858,0.00932283 -0.049311,-0.00500787 -0.0982677,-0.0133307 -0.1465,-0.024689 -0.0817598,-0.0191969 -0.154484,-0.016374 -0.154484,-0.104535l0 -1.03697c0,-0.0706063 0.00691732,-0.0573465 -0.051626,-0.0645354 -0.0462756,-0.00572835 -0.0924173,-0.0101693 -0.138752,-0.0139055 -0.163004,-0.0126969 -0.333508,-0.0215039 -0.495177,0.00635827 -0.0604567,0.010437 -0.0643189,0.000704724 -0.0643189,0.0663071l0 0.546795c0,0.386055 0.0290512,0.776622 0.0131102,1.1621 -0.00466142,0.114843 -0.0078189,0.390496 -0.136354,0.447358 -0.148972,0.0659449 -0.280665,-0.0734449 -0.418138,-0.102425 0.0189016,0.193484 -0.102134,0.57685 0.123366,0.674469 0.206815,0.0895079 0.444811,0.122882 0.662843,0.0489528 0.456799,-0.154969 0.604508,-0.663323 0.546598,-1.08105 0.70515,0.210693 1.46626,-0.141772 1.76773,-0.778445 0.214795,-0.453425 0.124071,-1.01651 -0.199193,-1.40208 -0.605559,-0.722299 -1.83461,-0.860839 -2.6915,-0.521752z"/></svg>