<svg xmlns="http://www.w3.org/2000/svg" id="Layer_1" x="0" y="0" version="1.1" viewBox="0 0 52 52" xml:space="preserve"><path fill="#3c93c9" d="M38.66 42.36c-.46 1.13-1.17 1.99-2.05 2.49-.67.37-1.42.56-2.23.56-1.47 0-3.11-.63-4.87-1.87-.57-.48-2.14-1.58-3.35-1.58-.73.03-1.19.03-1.75 0-.65 0-1.37.28-1.99.61-.62.33-1.14.71-1.37.91-.06.05-.12.09-.19.13-1.23.65-2.45 1.05-3.6 1.18-3.01.36-5.7-1.78-6.21-4.8-.79-4.62 2.03-8.44 2.15-8.6.12-.19 4-6.25 12.04-6.25 8.71.49 11.98 6.12 12.11 6.36.11.14 3.56 5.3 1.31 10.86z"/><path d="M33.44 24.67c3.67 0 6.65-3.95 6.65-8.8 0-4.85-2.98-8.79-6.65-8.79-3.66 0-6.64 3.94-6.64 8.79s2.98 8.8 6.64 8.8zM19.06 22.96c3.42 0 6.2-3.67 6.2-8.18 0-4.52-2.78-8.19-6.2-8.19-3.42 0-6.2 3.67-6.2 8.19 0 4.51 2.78 8.18 6.2 8.18zM7.12 17.56c-2.82 0-5.12 3-5.12 6.69 0 3.68 2.3 6.68 5.12 6.68s5.11-3 5.11-6.68c0-3.69-2.29-6.69-5.11-6.69z"/><ellipse cx="44.57" cy="26.6" rx="5.43" ry="7.12"/></svg>