<svg xmlns="http://www.w3.org/2000/svg" data-name="Layer 1" viewBox="0 0 512 512"><path fill="#4a4f60" d="M303.325,505.317H273.793a15.69293,15.69293,0,1,1,0-31.38581H303.325a59.26493,59.26493,0,0,0,59.24709-59.14775V255.01312a50.03153,50.03153,0,0,1,100.06292,0v12.78216a15.71928,15.71928,0,0,1-31.43852,0V255.01312a18.593,18.593,0,0,0-37.18588,0V414.78345A90.71278,90.71278,0,0,1,303.325,505.317Z"/><path fill="#3b3f4d" d="M397.60352 236.45239a18.598 18.598 0 0 0-18.593 18.56073V414.78344A90.7127 90.7127 0 0 1 288.325 505.317h15a90.7127 90.7127 0 0 0 90.68555-90.53357V255.01312a18.57725 18.57725 0 0 1 11.093-16.96991A18.49333 18.49333 0 0 0 397.60352 236.45239zM412.60352 205.06659a50.28685 50.28685 0 0 0-7.5.56268A50.05046 50.05046 0 0 1 447.635 255.01312v12.78216a15.68607 15.68607 0 0 1-8.21924 13.79438A15.72823 15.72823 0 0 0 462.635 267.79528V255.01312A50.046 50.046 0 0 0 412.60352 205.06659z"/><path fill="#4a4f60" d="M190.83838,53.66491q3.62932-.09118,7.4834,0a149.41607,149.41607,0,0,1,18.78161,1.66382,7.45819,7.45819,0,0,0,6.91419-2.65491A203.90675,203.90675,0,0,1,274.59033,8.317a204.45328,204.45328,0,0,1,3.0846,78.22949,7.82118,7.82118,0,0,0,.54638,4.26636,120.13739,120.13739,0,0,1,9.34265,38.16175,121.96653,121.96653,0,0,1-9.23083,55.9403,23.20212,23.20212,0,0,0,.74866,19.44287c16.79406,33.0503,35.71655,78.29029,44.672,129.12122,4.94178,28.04919,5.23584,48.646,0,70.21326q-.08166.33654-.16467.67126a84.42441,84.42441,0,0,1-62.1095,61.5907,309.9994,309.9994,0,0,1-145.95678.01831,84.4646,84.4646,0,0,1-62.17578-61.609q-.083-.33471-.16468-.67126c-5.23571-21.56726-4.94177-42.16407,0-70.21326,8.95557-50.83093,27.878-96.07092,44.672-129.12122a23.20212,23.20212,0,0,0,.74866-19.44287,121.96842,121.96842,0,0,1-9.23072-55.9403,120.13473,120.13473,0,0,1,9.34253-38.16175,7.82115,7.82115,0,0,0,.54651-4.26636A204.44679,204.44679,0,0,1,102.346,8.317,204.33857,204.33857,0,0,1,135.12158,33.5393a203.78884,203.78884,0,0,1,17.82349,19.167,7.45075,7.45075,0,0,0,6.86072,2.66236,172.38359,172.38359,0,0,1,18.80859-1.70374C182.89075,53.51306,186.97266,53.52771,190.83838,53.66491Z"/><path fill="#3b3f4d" d="M187.10339 55.32873a7.44962 7.44962 0 0 0 5.94776-1.692c-.73987.00763-1.48645.00995-2.21277.0282-3.86572-.1372-7.94763-.15185-12.224 0q-2.47157.0877-4.85779.24292C178.44946 54.19769 182.91077 54.68933 187.10339 55.32873zM105.12158 33.5393a203.78884 203.78884 0 0 1 17.82349 19.167 7.45075 7.45075 0 0 0 6.86072 2.66236 172.38359 172.38359 0 0 1 18.80859-1.70374c1.76-.0625 3.47839-.09039 5.171-.09955a7.46013 7.46013 0 0 1-.84033-.85907 203.78884 203.78884 0 0 0-17.82349-19.167A204.33857 204.33857 0 0 0 102.346 8.317c-1.35889 5.75757-2.62964 12.26984-3.60645 19.43946Q101.91254 30.5122 105.12158 33.5393zM323.75378 333.479c-8.95544-50.83093-27.87793-96.07092-44.672-129.12122a23.20212 23.20212 0 0 1-.74866-19.44287 121.96653 121.96653 0 0 0 9.23083-55.9403 120.13739 120.13739 0 0 0-9.34265-38.16175 7.82118 7.82118 0 0 1-.54638-4.26636A204.45328 204.45328 0 0 0 274.59033 8.317a204.562 204.562 0 0 0-26.39355 19.43946 204.16754 204.16754 0 0 1-.52185 58.79 7.82118 7.82118 0 0 0 .54638 4.26636 120.13739 120.13739 0 0 1 9.34265 38.16175 121.96653 121.96653 0 0 1-9.23083 55.9403 23.20212 23.20212 0 0 0 .74866 19.44287c16.79406 33.0503 35.71655 78.29029 44.672 129.12122 4.94178 28.04919 5.23584 48.646 0 70.21326q-.08166.33654-.16467.67126a84.42441 84.42441 0 0 1-62.1095 61.5907 310.42293 310.42293 0 0 1-58.01232 8.35571c5.45971.26526 10.48291.366 15.00085.366a310.16907 310.16907 0 0 0 73.01147-8.72168 84.42441 84.42441 0 0 0 62.1095-61.5907q.08295-.33471.16467-.67126C328.98962 382.125 328.69556 361.52819 323.75378 333.479z"/><path fill="#3b3f4d" d="M173.47,362.057v127.57a15.72612,15.72612,0,0,1-15.72,15.69H74.43994v-2.41A46.59987,46.59987,0,0,1,121.07007,456.347v-74.29a20,20,0,0,1,20-20Z"/><path fill="#4a4f60" d="M188.47,362.057v127.57a15.72612,15.72612,0,0,1-15.72,15.69H89.43994v-2.41A46.59987,46.59987,0,0,1,136.07007,456.347v-94.29Z"/><path fill="#3b3f4d" d="M302.5,502.907v2.41H219.18994a15.72612,15.72612,0,0,1-15.72-15.69V362.057h32.4a20,20,0,0,1,20,20v74.29A46.59976,46.59976,0,0,1,302.5,502.907Z"/><path fill="#4a4f60" d="M287.5,502.907v2.41H204.18994a15.72612,15.72612,0,0,1-15.72-15.69V362.057h52.4v94.29A46.59976,46.59976,0,0,1,287.5,502.907Z"/><ellipse cx="148.798" cy="116.058" fill="#f66" rx="15.706" ry="22.213" transform="rotate(-45.144 148.798 116.058)"/><path fill="#ff4e4e" d="M159.91333,104.96161A23.55808,23.55808,0,0,0,138.79,98.50793a23.51431,23.51431,0,0,1,16.81714,33.2442,23.52,23.52,0,0,1-5.71228,1.85633,23.67475,23.67475,0,0,0,14.62341-1.85633A23.51605,23.51605,0,0,0,159.91333,104.96161Z"/><ellipse cx="228.138" cy="116.058" fill="#f66" rx="22.213" ry="15.706" transform="rotate(-44.856 228.138 116.058)"/><path fill="#ff4e4e" d="M243.8584,100.36425a23.67829,23.67829,0,0,0-14.26758-1.92816,23.52669,23.52669,0,0,1,6.11353,1.92816,23.52579,23.52579,0,0,1-17.173,33.316,23.53354,23.53354,0,0,0,25.327-33.316Z"/><path fill="#3b3f4d" d="M196.45,362.057v141.22a15.65551,15.65551,0,0,1-7.98-13.65,15.65551,15.65551,0,0,1-7.98,13.65V362.057Z"/><path fill="#272a33" d="M412.60315,196.74951a57.55428,57.55428,0,0,0-57.53125,57.44678v159.77a51.75614,51.75614,0,0,1-51.74707,51.64795H282.05041a92.39424,92.39424,0,0,0,48.82324-60.28272l.168-.68652c5.35547-22.05615,5.38379-43.28809.09766-73.28418-7.50195-42.58447-22.7666-86.73242-45.37109-131.21729a15.69081,15.69081,0,0,1-.51075-13.1621,130.06017,130.06017,0,0,0,9.78614-59.38379,127.40423,127.40423,0,0,0-9.92286-40.54346.365.365,0,0,1-.0332-.18066,211.96532,211.96532,0,0,0-3.19726-81.0962,7.50053,7.50053,0,0,0-11.25-4.65283,212.29288,212.29288,0,0,0-33.97754,26.14795A210.11433,210.11433,0,0,0,218.234,47.09766a157.46322,157.46322,0,0,0-19.72266-1.74707c-2.52734-.06446-5.0957-.06495-7.63477-.00586-4.16015-.14209-8.373-.13965-12.52734.0083a175.84672,175.84672,0,0,0-19.5957,1.7915A212.05755,212.05755,0,0,0,140.274,27.27246,212.38412,212.38412,0,0,0,106.29651,1.12451a7.50066,7.50066,0,0,0-11.25,4.65235A211.97557,211.97557,0,0,0,91.84924,86.875a.34567.34567,0,0,1-.0332.1792,127.38919,127.38919,0,0,0-9.92285,40.54346,130.04071,130.04071,0,0,0,9.78613,59.38379,15.6909,15.6909,0,0,1-.51172,13.1621C68.56506,244.626,53.29944,288.77393,45.79553,331.36084c-5.28418,29.99609-5.25586,51.228.10059,73.29248l.17187.69775a92.39789,92.39789,0,0,0,49.709,60.69275,53.78574,53.78574,0,0,0-13.83984,36.04651V504.5a7.49974,7.49974,0,0,0,7.5,7.5h83.31152a23.143,23.143,0,0,0,15.71973-6.142A23.14152,23.14152,0,0,0,204.18713,512h83.3125c.21826,0,.43311-.01434.64649-.03259.21337.01825.42822.03259.64648.03259h14.53223c54.13964,0,98.18554-43.97754,98.18554-98.03369v-159.77a11.09331,11.09331,0,0,1,22.18653,0V266.978a23.21925,23.21925,0,0,0,46.43847,0V254.19629A57.55449,57.55449,0,0,0,412.60315,196.74951ZM204.18713,497a8.21487,8.21487,0,0,1-8.21875-8.19287V361.23584a7.5,7.5,0,0,0-15,0V488.80713A8.21571,8.21571,0,0,1,172.74865,497H97.26819a39.16558,39.16558,0,0,1,38.80273-33.96533,7.49974,7.49974,0,0,0,7.5-7.5V361.23584a7.5,7.5,0,0,0-15,0v87.31592a53.7842,53.7842,0,0,0-19.62012,6.78381A77.32535,77.32535,0,0,1,60.62463,401.731l-.1543-.62451c-4.82812-19.88965-4.7998-39.34229.09766-67.14307,7.24707-41.12647,22.041-83.86426,43.97266-127.0249a30.67567,30.67567,0,0,0,.98632-25.72412,112.30549,112.30549,0,0,1,.085-88.27247,15.31564,15.31564,0,0,0,1.06152-8.35644,196.82646,196.82646,0,0,1,.77344-64.751,196.96021,196.96021,0,0,1,22.52148,18.33741,197.065,197.065,0,0,1,17.168,18.46142,15.04118,15.04118,0,0,0,13.75391,5.33984,165.48,165.48,0,0,1,17.99121-1.62988c3.87695-.13769,7.81054-.13769,11.6914,0,.15235.00635.30469.00635.45508.00244,2.36035-.05957,4.75-.05957,7.10645,0a142.40332,142.40332,0,0,1,17.83789,1.58057A15.03516,15.03516,0,0,0,229.82483,56.603a196.29358,196.29358,0,0,1,39.66406-36.76856A196.783,196.783,0,0,1,270.2633,84.584a15.32046,15.32046,0,0,0,1.05957,8.355,112.30439,112.30439,0,0,1,.08789,88.27491,30.66962,30.66962,0,0,0,.98438,25.72461c21.93262,43.16308,36.72754,85.90039,43.97168,127.0249,4.89941,27.80078,4.92773,47.25293.09277,67.16406l-.14941.61475A77.29844,77.29844,0,0,1,267.9884,455.337a53.78359,53.78359,0,0,0-19.62256-6.78522V361.23584a7.5,7.5,0,0,0-15,0v94.29883a7.49974,7.49974,0,0,0,7.5,7.5A39.16559,39.16559,0,0,1,279.66858,497ZM455.13537,266.978a8.21928,8.21928,0,0,1-16.43847,0V254.19629a26.09328,26.09328,0,0,0-52.18653,0v159.77A83.2034,83.2034,0,0,1,303.32483,497h-8.564a53.56838,53.56838,0,0,0-4.2207-16.38574h12.78467a66.77284,66.77284,0,0,0,66.74707-66.64795v-159.77a42.53182,42.53182,0,0,1,85.06347,0Zm-226.84472-97.9585a7.49974,7.49974,0,0,0-7.5,7.5,12.41118,12.41118,0,0,1-24.82227,0,7.5,7.5,0,0,0-15,0,12.41117,12.41117,0,0,1-24.82226,0,7.5,7.5,0,0,0-15,0,27.39839,27.39839,0,0,0,47.32226,18.78674,27.39839,27.39839,0,0,0,47.32227-18.78674A7.49975,7.49975,0,0,0,228.29065,169.01953Zm-60.54493-31.31445a7.50114,7.50114,0,0,0,3.53809-3.53369,31.06057,31.06057,0,0,0-41.43359-41.39405,7.5023,7.5023,0,0,0-3.53809,3.53321,31.07822,31.07822,0,0,0,41.43359,41.39453Zm-28.86914-32.354a16.06,16.06,0,0,1,19.84278,19.78028,16.06069,16.06069,0,0,1-19.84278-19.78028Zm70.31348,32.354a31.06089,31.06089,0,0,0,41.43359-41.39453,7.50223,7.50223,0,0,0-3.53808-3.53321,31.06109,31.06109,0,0,0-41.4336,41.39405A7.499,7.499,0,0,0,209.19006,137.70508Zm13.13184-28.25293a16.13282,16.13282,0,0,1,15.7373-4.10059,16.05943,16.05943,0,0,1-19.84277,19.7793A16.04765,16.04765,0,0,1,222.3219,109.45215Z"/></svg>