<svg xmlns="http://www.w3.org/2000/svg" width="32" height="32" enable-background="new 0 0 32 32" viewBox="0 0 32 32"><path fill="#5C3837" d="M24.463,17.663c0.874-1.445,1.386-3.133,1.386-4.942c0-1.266-0.247-2.5-0.735-3.672l0.684-5.242
		c0.155-0.667-0.075-1.099-0.229-1.301c-0.383-0.5-1.087-0.648-1.771-0.342l-4.295,1.528c-2.078-0.751-4.378-0.757-6.47-0.01
		L8.765,2.164C8.082,1.858,7.377,2.006,6.995,2.506C6.84,2.708,6.611,3.14,6.766,3.807l0.67,5.139
		c-0.519,1.204-0.781,2.472-0.781,3.775c0,1.809,0.513,3.497,1.386,4.943C4.399,20.295,2.252,24.459,2.252,29c0,0.553,0.448,1,1,1
		h26c0.552,0,1-0.447,1-1C30.252,24.46,28.105,20.296,24.463,17.663z M8.654,12.721c0-0.161,0.016-0.319,0.026-0.479h1.505
		c0.422,1.259,1.599,2.175,2.998,2.175s2.576-0.916,2.998-2.175h0.271c0.422,1.259,1.6,2.175,2.999,2.175
		c1.399,0,2.576-0.916,2.998-2.175h1.375c0.01,0.159,0.025,0.318,0.025,0.479c0,4.189-3.408,7.597-7.598,7.597
		S8.654,16.91,8.654,12.721z M12.009,11.243c0-0.648,0.527-1.175,1.175-1.175s1.175,0.527,1.175,1.175s-0.527,1.175-1.175,1.175
		S12.009,11.891,12.009,11.243z M18.275,11.243c0-0.648,0.527-1.175,1.176-1.175c0.648,0,1.175,0.527,1.175,1.175
		s-0.527,1.175-1.175,1.175C18.803,12.417,18.275,11.891,18.275,11.243z M12.708,5.69c0.231,0.084,0.483,0.078,0.709-0.014
		c1.832-0.739,3.876-0.731,5.695,0.009c0.227,0.092,0.48,0.099,0.712,0.016l3.89-1.384l-0.619,4.747
		c-0.024,0.184,0.004,0.372,0.08,0.541c0.095,0.21,0.174,0.423,0.249,0.638h-0.975c-0.422-1.259-1.599-2.175-2.998-2.175
		c-1.399,0-2.577,0.916-2.999,2.175h-0.271c-0.422-1.259-1.599-2.175-2.998-2.175s-2.576,0.916-2.998,2.175H9.079
		C9.164,9.999,9.259,9.758,9.37,9.52c0.08-0.172,0.11-0.364,0.085-0.552L8.849,4.317L12.708,5.69z M16.252,22.318
		c2.758,0,5.241-1.177,6.994-3.046c0.545,0.392,1.066,0.809,1.53,1.275c-2.168,2.444-5.223,3.845-8.524,3.845
		c-3.3,0-6.355-1.399-8.524-3.846c0.465-0.466,0.985-0.883,1.531-1.274C11.011,21.142,13.494,22.318,16.252,22.318z M4.292,28
		c0.176-2.154,0.936-4.169,2.147-5.889c2.534,2.729,6.039,4.281,9.813,4.281s7.278-1.552,9.813-4.281
		c1.21,1.72,1.971,3.734,2.147,5.889H4.292z"/><path fill="#5C3837" d="M16.222,18.816c1.285,0,2.465-0.753,3.006-1.918c0.232-0.501,0.015-1.095-0.486-1.328
		c-0.5-0.233-1.095-0.016-1.328,0.486c-0.214,0.461-0.682,0.76-1.191,0.76c-0.484,0-0.927-0.265-1.156-0.69
		c-0.262-0.486-0.867-0.67-1.354-0.407c-0.486,0.262-0.668,0.868-0.407,1.354C13.882,18.148,15,18.816,16.222,18.816z"/></svg>