<svg xmlns="http://www.w3.org/2000/svg" viewBox="0 0 24 24"><path d="M18,11H14a1,1,0,0,1-1-1V6a1,1,0,0,1,2,0V9h3a1,1,0,0,1,0,2Z"/><path d="M14 11a1 1 0 0 1-.71-1.71l5-5a1 1 0 0 1 1.41 1.41l-5 5A1 1 0 0 1 14 11zM10 11H6A1 1 0 0 1 6 9H9V6a1 1 0 0 1 2 0v4A1 1 0 0 1 10 11z"/><path d="M10 11a1 1 0 0 1-.71-.29l-5-5A1 1 0 0 1 5.71 4.29l5 5A1 1 0 0 1 10 11zM10 19a1 1 0 0 1-1-1V15H6a1 1 0 0 1 0-2h4a1 1 0 0 1 1 1v4A1 1 0 0 1 10 19z"/><path d="M5 20a1 1 0 0 1-.71-1.71l5-5a1 1 0 0 1 1.41 1.41l-5 5A1 1 0 0 1 5 20zM14 19a1 1 0 0 1-1-1V14a1 1 0 0 1 1-1h4a1 1 0 0 1 0 2H15v3A1 1 0 0 1 14 19z"/><path d="M19,20a1,1,0,0,1-.71-.29l-5-5a1,1,0,0,1,1.41-1.41l5,5A1,1,0,0,1,19,20Z"/></svg>