<svg xmlns="http://www.w3.org/2000/svg" viewBox="0 0 48 48"><symbol id="New_Symbol_14" viewBox="-6.5 -6.5 13 13"><path fill="#ffd4c3" stroke="#504b46" stroke-linecap="round" stroke-linejoin="round" stroke-miterlimit="10" d="M0-6c2.2 0 4.1 1.5 4.7 3.5C6.3-2.5 6.4 0 5 0v1c0 2.8-2.2 5-5 5s-5-2.2-5-5V0c-1.4 0-1.3-2.5.2-2.5C-4.1-4.5-2.2-6 0-6z"/><circle cx="-1.6" cy="-.1" r=".1" fill="#ffc258"/><path fill="#4f4b45" d="M-1.6.5c-.3 0-.6-.3-.6-.6s.2-.7.6-.7c.3 0 .6.3.6.7s-.3.6-.6.6z"/><circle cx="1.6" cy="-.1" r=".1" fill="#ffc258"/><path fill="#4f4b45" d="M1.6.5C1.3.5 1 .2 1-.1s.3-.6.6-.6.6.3.6.6-.2.6-.6.6z"/><circle cx="-3" cy="-1.5" r=".5" fill="#fabfa5"/><circle cx="3" cy="-1.5" r=".5" fill="#fabfa5"/><path fill="none" stroke="#504b46" stroke-linecap="round" stroke-linejoin="round" stroke-miterlimit="10" d="M-1.2-3c.8-.5 1.7-.5 2.5 0"/></symbol><g id="Icons"><g id="XMLID_1987_"><path id="XMLID_2793_" fill="#fff48c" d="M18.7 7.4s-2.3-.4-4.2-2.1c-1-.9-2-2.2-2.7-3.2-.5-.7-1.6-.6-1.9.2-.5 1.4-1 3.4-.7 5.6.4 3.1 3.2 5.3 3.2 5.3l6.3-5.8z"/><path id="XMLID_2792_" fill="#fff48c" d="M29.2 7.4s2.3-.4 4.2-2.1c1-.9 2-2.2 2.7-3.2.5-.7 1.6-.6 1.9.2.5 1.4 1 3.4.7 5.6-.4 3.1-3.2 5.3-3.2 5.3l-6.3-5.8z"/><path id="XMLID_2791_" fill="#fffacf" d="M9.3 8.3c.2-.9.4-1.7.7-2.4.3-.8 1.4-.9 1.9-.2.7 1 1.7 2.3 2.7 3.2.5.4 1 .8 1.5 1l2.8-2.5s-2.3-.4-4.2-2.1c-1-.9-2-2.2-2.7-3.2-.5-.7-1.6-.6-1.9.2-.5 1.4-1 3.4-.7 5.6-.2.2-.2.3-.1.4z"/><path id="XMLID_2790_" fill="#fffacf" d="M33.4 8.9c1-.9 2-2.2 2.7-3.2.5-.7 1.6-.6 1.9.2.3.7.5 1.5.7 2.4 0-.1.1-.3.1-.4.2-2.2-.3-4.2-.8-5.6-.3-.8-1.4-.9-1.9-.2-.7 1-1.7 2.3-2.7 3.2-1.9 1.7-4.2 2.1-4.2 2.1L32 9.9c.4-.3 1-.6 1.4-1z"/><path id="XMLID_2789_" fill="none" stroke="#45413c" stroke-linecap="round" stroke-linejoin="round" stroke-miterlimit="10" d="M18.7 7.4s-2.3-.4-4.2-2.1c-1-.9-2-2.2-2.7-3.2-.5-.7-1.6-.6-1.9.2-.5 1.4-1 3.4-.7 5.6.4 3.1 3.2 5.3 3.2 5.3l6.3-5.8z"/><path id="XMLID_2788_" fill="none" stroke="#45413c" stroke-linecap="round" stroke-linejoin="round" stroke-miterlimit="10" d="M29.2 7.4s2.3-.4 4.2-2.1c1-.9 2-2.2 2.7-3.2.5-.7 1.6-.6 1.9.2.5 1.4 1 3.4.7 5.6-.4 3.1-3.2 5.3-3.2 5.3l-6.3-5.8z"/><path id="XMLID_2787_" fill="#f0f0f0" d="M12.8 11.1s-7 .9-10 9c-1.9 5.1 10 2.6 10 2.6V11.1z"/><path id="XMLID_2786_" fill="#fff" d="M2.7 20c-.4 1.1-.2 1.9.5 2.4 3.2-7.1 9.6-7.9 9.6-7.9v-3.4S5.8 12 2.7 20z"/><path id="XMLID_2785_" fill="none" stroke="#45413c" stroke-linecap="round" stroke-linejoin="round" stroke-miterlimit="10" d="M12.8 11.1s-7 .9-10 9c-1.9 5.1 10 2.6 10 2.6V11.1z"/><path id="XMLID_992_" fill="#f0f0f0" d="M35.2 11.1s7 .9 10 9c1.9 5.1-10 2.6-10 2.6V11.1z"/><path id="XMLID_991_" fill="#fff" d="M45.3 20c.4 1.1.2 1.9-.5 2.4-3.2-7.1-9.6-7.9-9.6-7.9v-3.4s7 .9 10.1 8.9z"/><path id="XMLID_865_" fill="none" stroke="#45413c" stroke-linecap="round" stroke-linejoin="round" stroke-miterlimit="10" d="M35.2 11.1s7 .9 10 9c1.9 5.1-10 2.6-10 2.6V11.1z"/><ellipse id="XMLID_2781_" cx="24" cy="44.8" fill="#45413c" opacity=".15" rx="12.2" ry="1.6"/><path id="XMLID_2780_" fill="#f0f0f0" d="M37.2 31.2H10.8V16.4c0-5.3 4.3-9.5 9.5-9.5h7.3c5.3 0 9.5 4.3 9.5 9.5v14.8z"/><path id="XMLID_2779_" fill="#fff" d="M27.7 6.9h-7.3c-5.3 0-9.5 4.3-9.5 9.5v3.8c0-5.3 4.3-9.5 9.5-9.5h7.3c5.3 0 9.5 4.3 9.5 9.5v-3.8c0-5.3-4.3-9.5-9.5-9.5z"/><path id="XMLID_2778_" fill="none" stroke="#45413c" stroke-linecap="round" stroke-linejoin="round" stroke-miterlimit="10" d="M37.2 31.2H10.8V16.4c0-5.3 4.3-9.5 9.5-9.5h7.3c5.3 0 9.5 4.3 9.5 9.5v14.8z"/><path id="XMLID_2777_" fill="#fcd" d="M39.3 31.2c0 5.5-3.5 10-15.3 10s-15.3-4.5-15.3-10 1.9-10 15.3-10 15.3 4.4 15.3 10z"/><path id="XMLID_2776_" fill="#ffe5ee" d="M24 24.8c11.7 0 14.6 3.4 15.2 7.9.1-.5.1-1.1.1-1.6 0-5.5-1.9-10-15.3-10s-15.3 4.5-15.3 10c0 .5 0 1.1.1 1.6.6-4.5 3.5-7.9 15.2-7.9z"/><path id="XMLID_2775_" fill="none" stroke="#45413c" stroke-linecap="round" stroke-linejoin="round" stroke-miterlimit="10" d="M39.3 31.2c0 5.5-3.5 10-15.3 10s-15.3-4.5-15.3-10 1.9-10 15.3-10 15.3 4.4 15.3 10z"/><circle id="XMLID_2774_" cx="17.7" cy="32.2" r="1.6" fill="#ff87af" stroke="#45413c" stroke-linecap="round" stroke-linejoin="round" stroke-miterlimit="10"/><circle id="XMLID_2773_" cx="30.3" cy="32.2" r="1.6" fill="#ff87af" stroke="#45413c" stroke-linecap="round" stroke-linejoin="round" stroke-miterlimit="10"/><circle id="XMLID_2772_" cx="30.7" cy="17.3" r="1.4" fill="#45413c" stroke="#45413c" stroke-linecap="round" stroke-linejoin="round" stroke-miterlimit="10"/><circle id="XMLID_2771_" cx="17.3" cy="17.3" r="1.4" fill="#45413c" stroke="#45413c" stroke-linecap="round" stroke-linejoin="round" stroke-miterlimit="10"/><ellipse id="XMLID_2770_" cx="34.6" cy="20.1" fill="#fcd" rx="1.6" ry="1"/><ellipse id="XMLID_2769_" cx="13.4" cy="20.1" fill="#fcd" rx="1.6" ry="1"/></g></g></svg>