<svg xmlns="http://www.w3.org/2000/svg" data-name="Layer 1" viewBox="0 0 512 512"><path fill="#fbc56d" d="M303.17 34.25c4.55-13.26 42.59-14.94 71.34-6.84 2.89.81 69.24 20.7 86 84.06 17.45 65.91-30.57 134.26-51.8 131-23.49-3.64-1-93-64.5-161.26C322.82 58.16 299.23 45.7 303.17 34.25zM208.83 34.25c-4.55-13.26-42.59-14.94-71.34-6.84-2.89.81-69.24 20.7-86 84.06-17.45 65.91 30.57 134.26 51.8 131 23.49-3.64 1-93 64.5-161.26C189.18 58.16 212.77 45.7 208.83 34.25zM359.47 393.76c8.22-2.9 13.36 16.36 33.15 23.37 32 11.34 68.87-21.21 71.95-24a99.29 99.29 0 0 0 25.57-37.29 6.5 6.5 0 0 1 12.5 1.52c2.66 19.95 1.87 48.05-15.59 72.49C457 472 390.76 484.49 368.73 463c-6.38-6.22-9.22-15.45-11.47-22.8C351.68 422.06 351.06 396.72 359.47 393.76z"/><path fill="#fccd7f" d="M397,386.35A118.17,118.17,0,0,1,278.85,504.5h-45.7a118.15,118.15,0,0,1-97.72-184.56l32.13-47.28L220,195.5h72L356.92,291l19.65,28.91A118.18,118.18,0,0,1,397,386.35Z"/><path fill="#fef1da" d="M256,366.73h0a77.93,77.93,0,0,0-77.93,77.93v46.23a117.56,117.56,0,0,0,55.08,13.61h45.7a117.56,117.56,0,0,0,55.08-13.61V444.66A77.93,77.93,0,0,0,256,366.73Z"/><path fill="#fbc56d" d="M356.92,291C333.57,311.44,303.64,323.7,271,323.7c-41.52,0-78.66-19.84-103.44-51L220,195.5h72Z"/><ellipse cx="256" cy="150.6" fill="#fccd7f" rx="135.1" ry="143.1"/><path fill="#444" d="M292.07,218l-29.49,29.49a6,6,0,0,1-8.48,0L224.61,218a6,6,0,0,1,4.24-10.24h59A6,6,0,0,1,292.07,218Z"/><path d="M303.56,130.17a7.5,7.5,0,0,0,7.5-7.5V103.61a7.5,7.5,0,0,0-15,0v19.06A7.5,7.5,0,0,0,303.56,130.17Zm206.51,226.2a14,14,0,0,0-26.9-3.29,91.46,91.46,0,0,1-23.63,34.49c-1.35,1.22-31,27.7-57.61,24.12a125.79,125.79,0,0,0-19.16-96l-34.35-50.54a151.15,151.15,0,0,0,38.94-56c3.22,22.46,6.18,38.45,20.21,40.63a18,18,0,0,0,2.74.2c10.29,0,20.3-8.6,27.13-16.19,12-13.31,22.3-32.49,28.28-52.62,7.28-24.49,8-49.28,2-71.69-18-68-88.24-88.52-91.22-89.36-18.36-5.17-39.9-6.59-55.88-3.79a135.71,135.71,0,0,0-129.34,0c-16-2.8-37.52-1.38-55.88,3.79-3,.84-73.21,21.33-91.22,89.36C38.29,132,39,156.75,46.28,181.24c6,20.13,16.29,39.31,28.28,52.62,6.83,7.59,16.84,16.2,27.13,16.19a18,18,0,0,0,2.74-.2c14-2.18,17-18.17,20.21-40.63a151.15,151.15,0,0,0,38.94,56l-34.35,50.54a125.63,125.63,0,0,0,44.65,181.4,8.5,8.5,0,0,0,1.37.72A124.88,124.88,0,0,0,233.15,512h45.7a124.88,124.88,0,0,0,57.9-14.16,7.78,7.78,0,0,0,1.37-.72,126.52,126.52,0,0,0,31.5-24c8.09,5.05,18.85,7.7,31.4,7.7q4.19,0,8.63-.39c32.74-2.92,65.52-21.07,83.5-46.24C512.17,407.59,512.85,377.19,510.07,356.37ZM372.48,34.63c.65.18,64.95,18.92,80.79,78.76,12.08,45.62-9.52,91-27,110.44-8,8.84-14.18,11.54-16.42,11.19-3.79-.58-6.43-19.21-8.18-31.53-1.25-8.83-2.67-18.8-4.81-29.52a159.31,159.31,0,0,0,1.72-23.37c0-49.26-22.51-93.07-57.24-120.57A130.2,130.2,0,0,1,372.48,34.63ZM115.13,174.07c-.07.26-.14.51-.19.78-2,10.4-3.42,20.09-4.63,28.64-1.75,12.32-4.39,30.95-8.18,31.53-2.22.36-8.46-2.34-16.42-11.19-17.46-19.4-39.06-64.82-27-110.44,15.84-59.84,80.14-78.58,80.79-78.76A130.2,130.2,0,0,1,170.64,30c-34.73,27.5-57.24,71.31-57.24,120.57A159.19,159.19,0,0,0,115.13,174.07ZM128.4,150.6C128.4,75.83,185.64,15,256,15S383.6,75.83,383.6,150.6,326.36,286.19,256,286.19,128.4,225.37,128.4,150.6Zm198,335.63A110,110,0,0,1,278.85,497h-45.7a110,110,0,0,1-47.58-10.77V444.66a70.43,70.43,0,0,1,140.86,0Zm15-8.68V444.66a85.43,85.43,0,0,0-170.86,0v32.89a110.6,110.6,0,0,1-28.94-153.4l33.64-49.49a136.09,136.09,0,0,0,161.46,0l33.64,49.49a110.6,110.6,0,0,1-28.94,153.4ZM481,425.49c-18.9,26.44-50.94,38.08-72.63,40-11.74,1-21.82-.41-28.84-4A125.34,125.34,0,0,0,398,426.25c13.54,2.39,28.64-.69,45-9.24a135.89,135.89,0,0,0,26.57-18.32,105.65,105.65,0,0,0,26-36.57C497.48,380,496,404.38,481,425.49ZM219.31,223.28l29.48,29.49a13.51,13.51,0,0,0,19.09,0l29.49-29.49h0a13.49,13.49,0,0,0-9.54-23h-59a13.49,13.49,0,0,0-9.54,23Zm64.89-8L258.34,241.1l-25.87-25.86Zm-75.76-85.07a7.5,7.5,0,0,0,7.5-7.5V103.61a7.5,7.5,0,0,0-15,0v19.06A7.5,7.5,0,0,0,208.44,130.17Z"/></svg>