<svg xmlns="http://www.w3.org/2000/svg" viewBox="0 0 48 48"><path fill="#5b5b5f" d="M37,44.58l-5.49-8.79a1,1,0,0,1-.13-.74l.47-11.81,12.08,20.5A1,1,0,0,1,43,45.21H38.07A1.33,1.33,0,0,1,37,44.58Z"/><rect width="31.2" height="43.32" x="4" y="2.5" fill="#ffb983" rx="2" ry="2"/><rect width="35.48" height="22.88" x="1.86" y="12.72" fill="#cee8f4" rx="2" ry="2" transform="rotate(-90 19.6 24.16)"/><path fill="#444242" d="M15.43,11.66l-2,4.38a1.45,1.45,0,0,0,1.31,2.06h4A1.45,1.45,0,0,0,20.07,16l-2-4.38A1.44,1.44,0,0,0,15.43,11.66Z"/><path fill="#444242" d="M21.15,11.72l-2,4.38a1.45,1.45,0,0,0,1.32,2.06h4a1.45,1.45,0,0,0,1.31-2.06l-2-4.38A1.44,1.44,0,0,0,21.15,11.72Z"/><rect width="13.73" height="15.03" x="12.73" y="14.83" fill="#e7ab8a" rx="5.25" ry="5.25"/><rect width="13.73" height="15.03" x="12.73" y="22.02" fill="#e7ab8a" rx="3.27" ry="3.27"/><rect width="13.73" height="2.61" x="12.73" y="29.87" fill="#ec6161"/><rect width="18.3" height="7.19" x="10.45" y="22.02" fill="#b2573f" rx="2.75" ry="2.75"/><path fill="#fcb143" d="M19.6,36.18c-1.24-.44-1.17-1.31-1.17-1.31a.59.59,0,1,1,1.17,0h0a.59.59,0,1,1,1.17,0h0s.05.88-1.17,1.31Z"/><path fill="#5b5b5f" d="M27.77,45.82H6a2,2,0,0,1-2-2V25.94C9,42,24,44.77,27.77,45.82Z" opacity=".33"/><g data-name="dog"><path fill="#1e1712" d="M44.37,43.8,35.75,29.18V4.79A2.45,2.45,0,0,0,33.3,2.34H6.1A2.45,2.45,0,0,0,3.65,4.79V44.11A2.45,2.45,0,0,0,6.1,46.56H33.3a2.45,2.45,0,0,0,2.45-2.45v-.47l.92,1.47a1.77,1.77,0,0,0,1.51.83H43.1a1.45,1.45,0,0,0,1.27-2.14Zm-9.52.31a1.55,1.55,0,0,1-1.55,1.55H6.1a1.56,1.56,0,0,1-1.55-1.55V4.79A1.55,1.55,0,0,1,6.1,3.24H33.3a1.54,1.54,0,0,1,1.55,1.55Zm8.72.67a.52.52,0,0,1-.47.26H38.18a.88.88,0,0,1-.75-.41l-1.68-2.69V31l7.84,13.28A.57.57,0,0,1,43.57,44.78Z"/><path fill="#1e1712" d="M29.14,6.26H10.26A2.45,2.45,0,0,0,7.81,8.71V40.19a2.45,2.45,0,0,0,2.45,2.45H29.14a2.45,2.45,0,0,0,2.45-2.45V8.71A2.45,2.45,0,0,0,29.14,6.26Zm1.55,33.93a1.56,1.56,0,0,1-1.55,1.55H10.26a1.56,1.56,0,0,1-1.55-1.55V8.71a1.55,1.55,0,0,1,1.55-1.55H29.14a1.55,1.55,0,0,1,1.55,1.55Z"/><path fill="#1e1712" d="M22.64 21c.36 0 .66-.44.66-1s-.3-1-.66-1-.65.44-.65 1S22.28 21 22.64 21zM16.76 21c.36 0 .65-.44.65-1s-.29-1-.65-1-.65.44-.65 1S16.4 21 16.76 21z"/><path fill="#1e1712" d="M27,22.05V20.37a5.57,5.57,0,0,0-.68-2.69,1.85,1.85,0,0,0,0-1.46l-2-4.38a1.85,1.85,0,0,0-3.36,0l-1.17,2.55-1.2-2.61a1.83,1.83,0,0,0-1.68-1.08,1.85,1.85,0,0,0-1.68,1.08l-2,4.39a1.82,1.82,0,0,0,0,1.48,5.7,5.7,0,0,0-.7,2.72v1.68a3.13,3.13,0,0,0-2.29,3v1.69a3.15,3.15,0,0,0,2.29,3v4.31a3.66,3.66,0,0,0,3.67,3.66H23.3A3.66,3.66,0,0,0,27,34.08V29.77a3.15,3.15,0,0,0,2.29-3V25.06A3.13,3.13,0,0,0,27,22.05Zm-5.34-9.87a1.07,1.07,0,0,1,1.9,0l2,4.38a.29.29,0,0,1,0,.1,5.59,5.59,0,0,0-4.24-1.94h-.87Zm-5.73-.06a1.08,1.08,0,0,1,1.91,0L19,14.72h-.91a5.66,5.66,0,0,0-4.25,2,1.21,1.21,0,0,1,.05-.18Zm-2.65,8.25a4.81,4.81,0,0,1,.67-2.46h0a4.88,4.88,0,0,1,4.17-2.39h3.24a4.85,4.85,0,0,1,4.84,4.85v1.55H13.24Zm0,11.24H26.16v.91H13.24Zm12.92,2.47a2.86,2.86,0,0,1-2.86,2.86H16.11a2.86,2.86,0,0,1-2.87-2.86v-.76H26.16Zm0-3.27H13.24V29.9H26.16Zm2.29-4.06A2.35,2.35,0,0,1,26.1,29.1H13.3A2.35,2.35,0,0,1,11,26.75V25.06a2.35,2.35,0,0,1,2.35-2.35H26.1a2.35,2.35,0,0,1,2.35,2.35Z"/><path fill="#1e1712" d="M22.61 27.73a.3.3 0 0 0-.42-.08 1.6 1.6 0 0 1-1.38.35 1.15 1.15 0 0 1-.44-.3 1.76 1.76 0 0 0 1-.9l.53-1.16a1.8 1.8 0 0 0-1.63-2.54H19.17a1.8 1.8 0 0 0-1.63 2.54l.53 1.16a1.76 1.76 0 0 0 1 .93 1.17 1.17 0 0 1-.41.27 1.62 1.62 0 0 1-1.39-.35.28.28 0 0 0-.22 0 .29.29 0 0 0-.19.13.29.29 0 0 0 .08.42 2.13 2.13 0 0 0 1.91.41 1.68 1.68 0 0 0 .87-.68 1.72 1.72 0 0 0 .87.68 1.44 1.44 0 0 0 .51.09 2.6 2.6 0 0 0 1.4-.5.31.31 0 0 0 .13-.19.31.31 0 0 0 0-.23zm-3.9-1.22l-.53-1.16a1.07 1.07 0 0 1 .07-1 1.09 1.09 0 0 1 .92-.51h1.06a1.09 1.09 0 0 1 .92.51 1.07 1.07 0 0 1 .07 1l-.53 1.16a1.09 1.09 0 0 1-2 0zM19.5 36.33a.4.4 0 0 0 .15 0 .2.2 0 0 0 .11 0c1.43-.49 1.41-1.53 1.4-1.64a.93.93 0 0 0-.93-.93 1 1 0 0 0-.59.2 1 1 0 0 0-.58-.2.93.93 0 0 0-.94.91S18.06 35.81 19.5 36.33zm-.44-1.86a.23.23 0 0 1 .23.23.35.35 0 0 0 .35.35A.34.34 0 0 0 20 34.7c0-.26.47-.28.47 0 0 0 0 .57-.81.91-.83-.34-.83-.89-.83-.94A.23.23 0 0 1 19.06 34.47z"/></g></svg>