<svg xmlns="http://www.w3.org/2000/svg" enable-background="new 0 0 512 512" viewBox="0 0 512 512"><path d="M141.132 66.83C99.253 21.412 41.799 23.645 15.713 26.095 7.926 26.804 1.772 32.957 1.064 40.744c-2.451 26.14-4.411 83.54 39.428 124.275C57.919 122.161 93.48 87.797 141.132 66.83zM471.695 165.073c43.839-40.844 41.606-98.189 39.264-124.329-.708-7.787-6.807-13.995-14.649-14.704-26.031-2.559-83.322-4.792-125.309 40.789C418.707 87.797 454.323 122.214 471.695 165.073z"/><path d="M256.048,55.025c-119.556,0-216.568,66.801-216.568,172.035c0,105.236,97.012,260.037,216.568,260.037c119.648,0,216.66-154.801,216.66-260.037C472.708,121.825,375.695,55.025,256.048,55.025z M280.926,419.178c-10.129,0-19.115-3.813-24.779-9.857c-5.773,6.044-14.758,9.857-24.888,9.857c-16.314,0-31.041-10.381-31.041-24.779c0-3.432,2.777-6.264,6.263-6.264c3.485,0,6.372,2.832,6.372,6.264c0,7.596,9.938,12.199,18.407,12.199c10.075,0,18.516-5.555,18.516-12.199v-14.16c-13.996-3.648-26.848-18.352-26.848-29.19c0-12.415,16.991-13.397,33.165-13.397s33.22,0.981,33.22,13.397c0,10.839-12.907,25.542-26.903,29.19v14.16c0,6.644,8.441,12.199,18.516,12.199c8.474,0,18.462-4.704,18.462-12.199c0-3.432,2.832-6.264,6.317-6.264c3.485,0,6.263,2.832,6.263,6.264C311.968,408.701,297.561,419.178,280.926,419.178z M305.136,293.229c-22.355-21.805-75.764-21.77-98.085,0c-40.366,39.222-113.13,8.889-116.662-48.877c-4.06-65.621,74.959-98.48,116.662-57.959c22.352,21.802,75.759,21.777,98.085,0c40.619-39.468,116.828-9.619,116.828,53.419C421.964,302.512,345.829,332.769,305.136,293.229z"/><path d="M160.515 216.184c-13.03 0-23.55 10.639-23.55 23.669 0 13.031 10.52 23.552 23.55 23.552 13.031 0 23.55-10.521 23.55-23.552C184.065 226.823 173.546 216.184 160.515 216.184zM351.686 216.184c-13.03 0-23.55 10.639-23.55 23.669 0 13.031 10.52 23.552 23.55 23.552 13.031 0 23.551-10.521 23.551-23.552C375.236 226.823 364.717 216.184 351.686 216.184z"/></svg>