<svg xmlns="http://www.w3.org/2000/svg" viewBox="0 0 48 48"><symbol id="New_Symbol_14" viewBox="-6.5 -6.5 13 13"><path fill="#ffd4c3" stroke="#504b46" stroke-linecap="round" stroke-linejoin="round" stroke-miterlimit="10" d="M0-6c2.2 0 4.1 1.5 4.7 3.5C6.3-2.5 6.4 0 5 0v1c0 2.8-2.2 5-5 5s-5-2.2-5-5V0c-1.4 0-1.3-2.5.2-2.5C-4.1-4.5-2.2-6 0-6z"/><circle cx="-1.6" cy="-.1" r=".1" fill="#ffc258"/><path fill="#4f4b45" d="M-1.6.5c-.3 0-.6-.3-.6-.6s.2-.7.6-.7c.3 0 .6.3.6.7s-.3.6-.6.6z"/><circle cx="1.6" cy="-.1" r=".1" fill="#ffc258"/><path fill="#4f4b45" d="M1.6.5C1.3.5 1 .2 1-.1s.3-.6.6-.6.6.3.6.6-.2.6-.6.6z"/><circle cx="-3" cy="-1.5" r=".5" fill="#fabfa5"/><circle cx="3" cy="-1.5" r=".5" fill="#fabfa5"/><path fill="none" stroke="#504b46" stroke-linecap="round" stroke-linejoin="round" stroke-miterlimit="10" d="M-1.2-3c.8-.5 1.7-.5 2.5 0"/></symbol><g id="Icons"><g id="XMLID_1840_"><path id="XMLID_2674_" fill="#ffe500" d="M5.9 25.6c.7-.1 1.4.4 1.6 1l.7 1.8c.8 2 .8 4.3 0 6.3-.9 2.2-2.8 4-5.1 4.7H3c-.7.2-1.4 0-1.8-.6-.4-.6-.4-1.4.1-1.9l1-1.1c.7-.8 1.2-1.6 1.6-2.5.6-1.5.8-3.1.6-4.7l-.1-1.1c-.2-1 .5-1.8 1.5-1.9z"/><g id="XMLID_2671_"><path id="XMLID_2673_" fill="#fff48c" d="M4.5 28.6v.5c.3-.5.7-.8 1.3-.9.7-.1 1.4.4 1.6 1l.8 1.8c.3.6.4 1.2.5 1.9.2-1.5.1-3-.5-4.4l-.7-1.8c-.3-.7-.9-1.1-1.6-1-.9.1-1.6.9-1.5 1.9l.1 1z"/><path id="XMLID_2672_" fill="#fff48c" d="M1.6 39.2l.7-.8c.6-.8 1.2-1.6 1.5-2.5.6-1.5.8-3.1.6-4.7v-.1c-.1.8-.3 1.5-.6 2.2-.3.9-.8 1.7-1.5 2.5l-1 1.1c-.5.5-.5 1.3-.1 1.9.2.1.3.3.4.4z"/></g><path id="XMLID_2670_" fill="none" stroke="#45413c" stroke-linecap="round" stroke-linejoin="round" stroke-miterlimit="10" d="M5.9 25.6c.7-.1 1.4.4 1.6 1l.7 1.8c.8 2 .8 4.3 0 6.3-.9 2.2-2.8 4-5.1 4.7H3c-.7.2-1.4 0-1.8-.6-.4-.6-.4-1.4.1-1.9l1-1.1c.7-.8 1.2-1.6 1.6-2.5.6-1.5.8-3.1.6-4.7l-.1-1.1c-.2-1 .5-1.8 1.5-1.9z"/><path id="XMLID_2669_" fill="none" stroke="#45413c" stroke-linecap="round" stroke-linejoin="round" stroke-miterlimit="10" d="M5.6 25.6l-.7-1.7"/><path id="XMLID_2668_" fill="none" stroke="#45413c" stroke-linecap="round" stroke-linejoin="round" stroke-miterlimit="10" d="M6.6 23.2l-3.5 1.4"/><path id="XMLID_2667_" fill="#bf8256" d="M19.4 43.6h8.8c8.7 0 16.4-5.9 18.5-14.4 1.3-5.4-1.3-10.9-6.3-13.3-3.7-1.8-8.1-.4-10.2 3.1-.5.9-.2 2.1.7 2.6.9.6 2.1.2 2.6-.7.9-1.7 3-2.3 4.7-1.6 3.5 1.5 5.4 5.4 4.4 9.1C41 35 35 39.6 28.1 39.6h-8l-.7 4z"/><g id="XMLID_2664_"><path id="XMLID_2666_" fill="#dea47a" d="M20 41.8h8c6.9 0 12.9-4.6 14.6-11.3.3-1 .3-2 .2-3 0 .3-.1.6-.2.8C41 35 35 39.6 28.1 39.6h-8l-.7 3.9h.4l.2-1.7z"/><path id="XMLID_2665_" fill="#dea47a" d="M40.4 18c3.8 1.8 6.2 5.4 6.6 9.4.4-4.8-2.1-9.4-6.6-11.6-3.7-1.8-8.1-.4-10.2 3.1-.4.7-.3 1.5.1 2.1 2.1-3.4 6.4-4.7 10.1-3z"/></g><path id="XMLID_2663_" fill="none" stroke="#45413c" stroke-linecap="round" stroke-linejoin="round" stroke-miterlimit="10" d="M19.4 43.6h8.8c8.7 0 16.4-5.9 18.5-14.4 1.3-5.4-1.3-10.9-6.3-13.3-3.7-1.8-8.1-.4-10.2 3.1-.5.9-.2 2.1.7 2.6.9.6 2.1.2 2.6-.7.9-1.7 3-2.3 4.7-1.6 3.5 1.5 5.4 5.4 4.4 9.1C41 35 35 39.6 28.1 39.6h-8l-.7 4z"/><path id="XMLID_2662_" fill="#bf8256" d="M30.7 30.2C29.1 21.9 21.9 16 13.5 16v12l-4.3-.8c-1.6-.3-2.9 1.2-2.4 2.7.2.8.9 1.4 1.7 1.5l5 .8v2.4c-1 1-1.6 2.5-1.5 4.1l.1 1h-.8c-1.7 0-3 1.6-2.7 3.2.1.5.5.8 1 .8h14.1c4.2 0 7.6-3.4 7.6-7.6-.1-2.1-.3-4-.6-5.9z"/><ellipse id="XMLID_2661_" cx="20" cy="44.3" fill="#45413c" opacity=".15" rx="18" ry="1.5"/><path id="XMLID_1098_" fill="#915e3a" d="M13.5 25.8c4.5 0 8.4-2.7 10.2-6.5-2.9-2.1-6.4-3.3-10.2-3.3v9.8z"/><path id="XMLID_1097_" fill="none" stroke="#45413c" stroke-linecap="round" stroke-linejoin="round" stroke-miterlimit="10" d="M30.7 30.2C29.1 21.9 21.9 16 13.5 16v12l-4.3-.8c-1.6-.3-2.9 1.2-2.4 2.7.2.8.9 1.4 1.7 1.5l5 .8v2.4c-1 1-1.6 2.5-1.5 4.1l.1 1h-.8c-1.7 0-3 1.6-2.7 3.2.1.5.5.8 1 .8h14.1c4.2 0 7.6-3.4 7.6-7.6-.1-2.1-.3-4-.6-5.9z"/><path id="XMLID_1096_" fill="#bf8256" d="M22 8.7h-.2c-.9-3.8-4.3-6.6-8.3-6.6S6.1 5 5.2 8.8H5c-1.8 0-3.3 1.5-3.3 3.3v.7c0 1.8 1.5 3.3 3.3 3.3h.2c.9 3.8 4.3 6.6 8.3 6.6s7.4-2.8 8.3-6.6h.2c1.8 0 3.3-1.5 3.3-3.3V12c0-1.8-1.5-3.3-3.3-3.3z"/><path id="XMLID_1042_" fill="#dea47a" d="M22 8.7h-.2c-.9-3.8-4.3-6.6-8.3-6.6C9.4 2.2 6 5 5.2 8.8H5c-1.8 0-3.3 1.5-3.3 3.3v.7c0 .4.1.7.2 1 .4-1.3 1.7-2.3 3.1-2.3h.2c.8-3.8 4.2-6.6 8.3-6.6 4 0 7.4 2.8 8.3 6.6h.2c1.5 0 2.7 1 3.1 2.3.1-.3.2-.7.2-1V12c0-1.8-1.5-3.3-3.3-3.3z"/><path id="XMLID_1041_" fill="none" stroke="#45413c" stroke-linecap="round" stroke-linejoin="round" stroke-miterlimit="10" d="M22 8.7h-.2c-.9-3.8-4.3-6.6-8.3-6.6S6.1 5 5.2 8.8H5c-1.8 0-3.3 1.5-3.3 3.3v.7c0 1.8 1.5 3.3 3.3 3.3h.2c.9 3.8 4.3 6.6 8.3 6.6s7.4-2.8 8.3-6.6h.2c1.8 0 3.3-1.5 3.3-3.3V12c0-1.8-1.5-3.3-3.3-3.3z"/><path id="XMLID_1040_" fill="#ffdcd1" stroke="#45413c" stroke-linecap="round" stroke-linejoin="round" stroke-miterlimit="10" d="M18.1 14.6c1.1 1 1.7 2.4 1.7 4 0 .5-.1.9-.2 1.3-1.5 1.6-3.7 2.6-6.1 2.6-2.8 0-5.2-1.3-6.8-3.3 0-.2-.1-.4-.1-.6 0-1.5.7-2.9 1.7-4-1-.7-1.7-1.9-1.7-3.3 0-2.2 1.8-3.9 3.9-3.9 1 0 1.9.4 2.6 1 .7-.6 1.6-1 2.6-1 2.2 0 3.9 1.8 3.9 3.9.2 1.4-.5 2.6-1.5 3.3z"/><circle id="XMLID_1039_" cx="16.8" cy="11.4" r="1.3" fill="#45413c" transform="matrix(.05447 -.9985 .9985 .05447 4.484 27.495)"/><circle id="XMLID_1006_" cx="10.2" cy="11.4" r="1.3" fill="#45413c" transform="matrix(.05447 -.9985 .9985 .05447 -1.726 20.937)"/><path id="XMLID_1005_" fill="none" stroke="#45413c" stroke-linecap="round" stroke-linejoin="round" stroke-miterlimit="10" d="M10.8 17.9s1.1 1.3 2.6 1.3c1.6 0 2.6-1.3 2.6-1.3"/><path id="XMLID_1004_" fill="none" stroke="#45413c" stroke-linecap="round" stroke-linejoin="round" stroke-miterlimit="10" d="M13.5 27.9l3.5.6"/><path id="XMLID_1003_" fill="none" stroke="#45413c" stroke-linecap="round" stroke-linejoin="round" stroke-miterlimit="10" d="M20.9 24.6l1.6 4.4c.8 2.2-1.1 4.4-3.3 4l-5.7-.9"/><path id="XMLID_1002_" fill="none" stroke="#45413c" stroke-linecap="round" stroke-linejoin="round" stroke-miterlimit="10" d="M22.4 38.8c.2-3.2-2.4-5.9-5.7-5.8-1.3.1-2.4.6-3.2 1.5"/></g></g></svg>