<svg xmlns="http://www.w3.org/2000/svg" enable-background="new 0 0 100 100" viewBox="0 0 100 100"><path d="M91,46.1C91,20.7,75.3,5,50,5S9,20.7,9,46.1v0.1v0.1V89c0,3.3,2.7,6,6,6h70c3.3,0,6-2.7,6-6V46.3v-0.1V46.1z M50,48.3c1.1,0,2-0.9,2-2c0-9.7,7.9-17.7,17.5-17.7S87,36.5,87,46.2C86.9,71.4,70.7,91,50,91S13.1,71.4,13,46.3c0-9.7,7.9-17.6,17.5-17.6S48,36.6,48,46.4C48,47.4,48.9,48.3,50,48.3z M50,9c17.6,0,29.7,8,34.6,21.9c-3.9-3.9-9.2-6.3-15.1-6.3c-8.6,0-16.1,5.1-19.5,12.6c-3.4-7.4-10.9-12.6-19.5-12.6c-5.9,0-11.2,2.4-15.1,6.3C20.3,17,32.4,9,50,9z M15,91c-1.1,0-2-0.9-2-2V67.5C17.2,78,24.5,86.4,33.5,91H15z M85,91H66.5c9-4.6,16.3-13,20.5-23.5V89C87,90.1,86.1,91,85,91z M36,49c0,1.1-0.9,2-2,2h-8c-1.1,0-2-0.9-2-2s0.9-2,2-2h8C35.1,47,36,47.9,36,49z M64,49c0-1.1,0.9-2,2-2h8c1.1,0,2,0.9,2,2s-0.9,2-2,2h-8C64.9,51,64,50.1,64,49z M39,67c-0.1,0.5,0.1,1.1,0.5,1.5l9,10.8c0.4,0.5,0.9,0.7,1.5,0.7s1.2-0.3,1.5-0.7l9-10.8c0.3-0.4,0.5-0.9,0.5-1.5c-0.1-0.5-0.3-1-0.7-1.4l-9-7.2c-0.7-0.6-1.8-0.6-2.5,0l-9,7.2C39.3,66,39.1,66.5,39,67z M50,62.6l6.2,4.9L50,74.9l-6.2-7.4L50,62.6z"/></svg>