<svg xmlns="http://www.w3.org/2000/svg" xmlns:xlink="http://www.w3.org/1999/xlink" viewBox="0 0 64 64"><defs><linearGradient id="a" x1="22.09" x2="42.48" y1="2.96" y2="50.7" gradientUnits="userSpaceOnUse"><stop offset="0" stop-color="#ec6ead"/><stop offset="1" stop-color="#3494e6"/></linearGradient><linearGradient id="b" x1="13.31" x2="33.55" y1="6.76" y2="54.15" xlink:href="#a"/><linearGradient id="c" x1="30.3" x2="50.54" y1=".14" y2="47.52" xlink:href="#a"/><linearGradient id="d" x1="15.6" x2="35.94" y1="5.74" y2="53.35" xlink:href="#a"/></defs><path fill="url(#a)" d="M58.5,21a12.63,12.63,0,0,0-4.25-8.39C49.85,8.55,43.84,7.82,40.86,11a5.66,5.66,0,0,0-.61.78,17.64,17.64,0,0,0-5.53-2h0l-.5-.09,0,0a16.44,16.44,0,0,0-10.46,2.09,5.5,5.5,0,0,0-.6-.77c-3-3.19-9-2.46-13.39,1.62A12.63,12.63,0,0,0,5.5,21a6.53,6.53,0,0,0,1.67,4.82,6.43,6.43,0,0,0,3.91,1.93A29.38,29.38,0,0,0,9.2,37.69C9.2,48.85,17.3,55,32,55s22.8-6.15,22.8-17.31A25.09,25.09,0,0,0,54.49,34h0l-.1-.62a30.87,30.87,0,0,0-1.51-5.58,6.41,6.41,0,0,0,3.93-1.93A6.53,6.53,0,0,0,58.5,21ZM46.27,19.75c.09.11.17.24.26.36.29.39.58.78.85,1.18l.35.55c.23.36.46.71.68,1.08.12.21.24.42.35.63s.4.7.58,1.05.22.46.34.69.33.69.49,1,.2.48.31.73.28.68.41,1,.18.51.27.76.24.67.34,1,.16.53.23.79.19.65.27,1l.18.81c0,.21.09.42.13.63A13.83,13.83,0,0,1,34.86,11.85l.66.16c.26.07.52.13.77.21s.59.21.89.33.49.18.73.29.58.29.87.43l.7.37c.29.16.57.35.85.54s.44.27.64.41.58.44.87.66l.57.44c.31.27.61.55.91.83l.45.41c.4.39.79.81,1.17,1.23l.11.12C45.47,18.75,45.88,19.24,46.27,19.75ZM8.63,24.48A4.6,4.6,0,0,1,7.5,21.09a10.68,10.68,0,0,1,3.61-7c3.6-3.33,8.34-4.1,10.57-1.72a3.91,3.91,0,0,1,.36.47A27.19,27.19,0,0,0,15.79,19a34.69,34.69,0,0,0-3.94,6.8A4.61,4.61,0,0,1,8.63,24.48ZM32,53c-9.49,0-20.8-2.66-20.8-15.31,0-11.78,9.6-26.17,20.8-26.17l.49,0A15.65,15.65,0,0,0,29,21.39,15.86,15.86,0,0,0,44.88,37.21a15.67,15.67,0,0,0,7.75-2,21.75,21.75,0,0,1,.17,2.51C52.8,50.34,41.49,53,32,53ZM55.37,24.48a4.61,4.61,0,0,1-3.25,1.33,35.42,35.42,0,0,0-2-3.92,29.09,29.09,0,0,0-8.15-9,3.5,3.5,0,0,1,.37-.49c2.23-2.38,7-1.61,10.57,1.72a10.68,10.68,0,0,1,3.61,7A4.6,4.6,0,0,1,55.37,24.48Z"/><path fill="url(#b)" d="M22.09,23.35a4,4,0,1,0,4,4A4,4,0,0,0,22.09,23.35Zm0,5.93a2,2,0,1,1,2-2A2,2,0,0,1,22.09,29.28Z"/><path fill="url(#c)" d="M41.91,23.35a4,4,0,1,0,4,4A4,4,0,0,0,41.91,23.35Zm0,5.93a2,2,0,1,1,2-2A2,2,0,0,1,41.91,29.28Z"/><path fill="url(#d)" d="M35,46.08a2,2,0,0,1-2-2V42a4.1,4.1,0,0,0,3.47-3.85c0-3-3.37-3-4.47-3s-4.47,0-4.47,3A4.1,4.1,0,0,0,31,42v2.08a2,2,0,0,1-3.94,0h-2A4,4,0,0,0,32,46.72a4,4,0,0,0,6.94-2.6h-2A2,2,0,0,1,35,46.08Zm-5.44-7.89c0-.37,0-1,2.47-1s2.47.61,2.47,1a2.26,2.26,0,0,1-2.47,2A2.26,2.26,0,0,1,29.53,38.19Z"/></svg>