<svg xmlns="http://www.w3.org/2000/svg" enable-background="new 0 0 1650 962.5" viewBox="0 0 1650 962.5"><path fill="#f9d0c3" d="M1057.5,577.3l4.6,16.3c0.5,1.5,1,2.9,1.2,4.4l0.2,0.6h0c0.3,1.5,0.4,3,0.4,4.5
				c0,44.7-113.9,85.5-254.3,85.5S555.3,647.7,555.3,603c0-1.5,0.2-3,0.4-4.5h0l0.2-0.6c0.3-1.4,0.7-2.9,1.2-4.3l4.6-16.3
				c-18.8,11.9-29.5,25.4-29.5,39.6c0,48.8,124.2,97.5,277.4,97.5s277.4-48.8,277.4-97.5C1087,602.6,1076.4,589.2,1057.5,577.3z"/><path fill="#f5b48f" d="M1063.5,598.5L1063.5,598.5l-0.1-0.6c-0.3-1.5-0.7-2.9-1.2-4.4l-44.4-157c0,34.5-93.2,62.4-208.1,62.4
				c-114.9,0-208.1-27.9-208.1-62.4l-44.4,157c-0.5,1.4-0.9,2.9-1.2,4.3l-0.2,0.6h0c-0.3,1.5-0.4,3-0.4,4.5
				c0,44.7,113.9,85.5,254.3,85.5s254.3-40.8,254.3-85.5C1063.9,601.5,1063.8,600,1063.5,598.5z"/><path fill="#f5b48f" d="M1063.5,598.5L1063.5,598.5l-0.1-0.6c-0.3-1.5-0.7-2.9-1.2-4.4l-44.4-157c0,34.5-93.2,62.4-208.1,62.4
				c-114.9,0-208.1-27.9-208.1-62.4l-44.4,157c-0.5,1.4-0.9,2.9-1.2,4.3l-0.2,0.6h0c-0.3,1.5-0.4,3-0.4,4.5
				c0,44.7,113.9,85.5,254.3,85.5s254.3-40.8,254.3-85.5C1063.9,601.5,1063.8,600,1063.5,598.5z"/><ellipse cx="809.6" cy="436.6" fill="#fdf1ea" rx="208.1" ry="62.4"/><ellipse cx="809.6" cy="436.6" fill="#fff" rx="177.2" ry="39.3"/><ellipse cx="809.6" cy="450.4" fill="#eb6f28" rx="177.2" ry="39.3"/><path fill="#dd6a26" d="M1061.6,574.5l-39.3-138.9c-1.6-41.4-108.8-66.1-212.6-66.1c-103.8,0-211.1,24.7-212.6,66.1l-39.3,138.9
					c-19.3,12.6-30.1,27-30.1,42.4c0,54.4,131.8,102.1,282,102.1s282-47.7,282-102.1C1091.7,601.5,1080.8,587.2,1061.6,574.5z
					 M809.6,378.8c121.7,0,203.4,29.9,203.4,57.8c0,27.9-81.7,57.8-203.4,57.8s-203.4-29.9-203.4-57.8
					C606.2,408.6,687.9,378.8,809.6,378.8z M809.6,709.8c-156.1,0-272.8-49-272.8-92.9c0-9.9,6-19.5,16.9-28.4l-1,3.4
					c-0.6,1.7-1.1,3.4-1.3,4.6l-0.2,0.6c-0.1,0.3-0.1,0.6-0.2,1c-0.3,1.7-0.4,3.3-0.4,4.8c0,17.9,15.4,35.2,44.5,50.1
					c2.3,1.2,5.1,0.3,6.2-2c1.2-2.3,0.3-5.1-2-6.2C574,631.8,560,617,560,603c0-1.2,0.1-2.4,0.4-3.8l0.1-0.4
					c0.2-1.2,0.6-2.4,1.1-3.9l40.5-143c0.7,1,1.5,2.1,2.4,3.1c0.1,0.2,0.3,0.3,0.5,0.5c0.8,0.9,1.6,1.8,2.5,2.7
					c0.4,0.4,0.8,0.7,1.2,1.1c0.7,0.7,1.5,1.3,2.2,2c0.5,0.4,1,0.8,1.5,1.2c19.9,15.6,48,23.3,72.4,28.8c27.4,6.2,55.4,9,83.4,10.6
					c38.9,2.2,78,2.2,116.7-2.3c36.6-4.3,77.9-11.4,110.5-29.5c1.1-0.6,2.1-1.2,3.1-1.8c0.6-0.4,1.2-0.7,1.8-1.1
					c5.1-3.2,10.4-7.2,14.4-11.8c0.1-0.1,0.2-0.2,0.3-0.4c0.9-1,1.7-2,2.4-3.1l40.6,143.3c0.5,1.3,0.8,2.5,1.2,4.1
					c0.2,1.4,0.3,2.6,0.3,3.7c0,38.3-102.5,80.9-249.7,80.9c-53.4,0-104.8-5.9-148.6-17c-2.5-0.6-5,0.9-5.6,3.3
					c-0.6,2.5,0.9,5,3.3,5.6c44.6,11.3,96.8,17.3,150.9,17.3c140.4,0,258.9-41.3,258.9-90.2c0-1.5-0.1-3.1-0.4-4.8
					c0-0.3-0.1-0.7-0.2-1l-0.1-0.2c-0.3-1.7-0.8-3.4-1.3-4.8l-1.1-3.7c10.9,8.9,16.9,18.5,16.9,28.4
					C1082.4,660.7,965.8,709.8,809.6,709.8z"/><path fill="#dd6a26" d="M645.3 662.6c-11.3-3.3-21.8-7-31.2-11-2.4-1-5.1.1-6 2.5-1 2.4.1 5.1 2.5 6 9.7 4.1 20.6 7.9 32.2 11.3.4.1.9.2 1.3.2 2 0 3.8-1.3 4.4-3.3C649.2 665.9 647.8 663.4 645.3 662.6zM809.6 480.5c90.3 0 181.8-15.1 181.8-43.9 0-28.8-91.5-43.9-181.8-43.9s-181.8 15.1-181.8 43.9C627.8 465.4 719.3 480.5 809.6 480.5zM809.6 401.9c106.9 0 172.6 20.2 172.6 34.7 0 14.5-65.6 34.7-172.6 34.7S637.1 451 637.1 436.6C637.1 422.1 702.7 401.9 809.6 401.9z"/><ellipse cx="744.1" cy="569.1" fill="#fff" rx="17.5" ry="24.4" transform="rotate(-34.888 744.043 569.1)"/><ellipse cx="875.2" cy="569.1" fill="#fff" rx="24.4" ry="17.5" transform="rotate(-55.112 875.146 569.106)"/><ellipse cx="786.8" cy="547.8" fill="#fff" rx="17.5" ry="24.4" transform="rotate(-14.863 786.865 547.846)"/><ellipse cx="835.5" cy="547.8" fill="#fff" rx="24.4" ry="17.5" transform="rotate(-75.137 835.558 547.812)"/><path fill="#fff" d="M849.6,592.9c-3.5-1.2-6.8-1.7-10.1-1.7c-4.2,0.1-8.3-1.6-11-4.8c-4.4-5.3-10.6-8.9-17.4-8.9
						s-13,3.6-17.4,8.9c-2.7,3.2-6.8,4.9-11,4.8c-3.2-0.1-6.6,0.4-10.1,1.7c-12.5,4.4-21.1,15.8-21,29.1
						c0.1,16.7,13.7,30.2,30.5,30.2c5.9,0,11.5-1.7,16.1-4.6c7.9-5,17.7-5,25.6,0c4.7,2.9,10.2,4.6,16.1,4.6
						c16.8,0,30.3-13.5,30.5-30.2C870.6,608.7,862,597.3,849.6,592.9z"/><g><path fill="#fdf1ea" d="M1128,307.7l-19.4-14.5l-6.3,7.9c-3,3.8-2.3,9.4,1.7,12.3l11.5,8.4c3.1,2.3,3.8,6.7,1.4,9.8l-55.1,71.7
							l-15.7-11.9l-41.1,49.8l25.3,22.4l101.2-127.7C1138.2,327.2,1136.6,314.6,1128,307.7z"/><path fill="#fff" d="M893.9,474.5c-22.3,24.2-19.2,62.8,5.4,84.7v0c16.3,14.5,41.3,13,55.7-3.3l78.8-88.9l-30.7-27.2
							l-27.2,30.7C952,449.1,915.5,451.1,893.9,474.5z M905.2,505.7c1.3-4.8,3.7-9.4,7.2-13.3c9.9-11.1,25.6-14,38.4-8.1
							c4.5,2.1,5.8,7.8,2.5,11.5l-21.2,23.9C921.3,532,901,521.5,905.2,505.7z"/><path fill="#f9d0c3" d="M899.5,480.2c-22.3,24.2-19.2,62.8,5.4,84.7l0,0c16.3,14.5,41.3,13,55.7-3.3l78.8-88.9l-30.7-27.2
							L981.6,476C957.6,454.8,921.1,456.7,899.5,480.2z M910.8,511.4c1.3-4.8,3.7-9.4,7.2-13.3c9.9-11.1,25.6-14,38.4-8.1
							c4.5,2.1,5.8,7.8,2.5,11.5l-21.2,23.9C926.9,537.6,906.6,527.1,910.8,511.4z"/><path fill="#fdf1ea" d="M1079.2,441.4L968.3,298.1c0,0-14.8,30.2,15.3,77.1l69.4,88.7L1079.2,441.4z"/><path fill="#fff" d="M1108.9,469.9l-26.7-31.1l-31.1,26.8l77.5,90.1c14.2,16.5,39.2,18.4,55.7,4.2h0
							c24.9-21.4,28.5-60,6.6-84.6C1169.6,451.5,1133.2,449,1108.9,469.9z M1152,520l-20.9-24.2c-3.2-3.8-1.8-9.5,2.7-11.5
							c12.9-5.7,28.6-2.6,38.3,8.7c3.5,4,5.8,8.6,7,13.4C1183.1,522.1,1162.6,532.3,1152,520z"/><path fill="#f9d0c3" d="M1114.5,464.3l-26.7-31.1l-31.1,26.8l77.5,90.1c14.2,16.5,39.2,18.4,55.7,4.2v0
							c24.9-21.4,28.5-60,6.6-84.6C1175.3,445.9,1138.8,443.4,1114.5,464.3z M1157.6,514.4l-20.9-24.2c-3.2-3.8-1.8-9.5,2.7-11.5
							c12.9-5.7,28.6-2.6,38.3,8.7c3.5,4,5.8,8.6,7,13.4C1188.7,516.5,1168.2,526.7,1157.6,514.4z"/><g><path fill="#dd6a26" d="M952 481.8c-14.4-6.6-31.2-3.1-41.7 8.8-3.7 4.2-6.3 9.1-7.8 14.5-2.2 8.4 1.3 16.5 9 20.6 2.7 1.4 5.8 2.3 9.1 2.3 4.7 0 9.7-1.8 13.6-6.2l21.2-23.9c2.1-2.4 3-5.6 2.3-8.8C957.1 485.8 955 483.2 952 481.8zM951.2 494L930 517.9c-5 5.6-11.6 5-15.9 2.7-4-2.2-8.1-7.2-6.2-14.2 1.2-4.5 3.4-8.6 6.6-12.2 8.7-9.9 23.2-12.9 35.2-7.4 1.4.6 2.3 1.8 2.6 3.3C952.5 491.5 952.2 492.9 951.2 494zM1003.8 496.6l-15.1 17c-1 1.2-.9 2.9.2 4 .5.5 1.2.7 1.9.7.8 0 1.6-.3 2.1-.9l15.1-17c1-1.2.9-2.9-.2-4C1006.6 495.3 1004.8 495.4 1003.8 496.6z"/><path fill="#dd6a26" d="M1193,473.4c-21.5-24.1-58.5-27.2-83.7-7.4l-24.9-29c-0.5-0.6-1.2-0.9-1.9-1c-0.7-0.1-1.5,0.2-2,0.7
							l-0.7,0.6l-12.3-15.9l66.3-83.7c7.7-9.9,6-24.4-3.9-32.2c0,0,0,0-0.1-0.1l-19.4-14.5c-1.2-0.9-2.9-0.7-3.9,0.5l-6.3,7.9
							c-2,2.5-2.8,5.5-2.4,8.6c0.4,3.1,2.1,5.8,4.6,7.7l11.5,8.4c0.9,0.7,1.5,1.6,1.6,2.7c0.2,1.1-0.1,2.2-0.8,3.1l-0.7,0.9
							l-20.5-14.9c-1.3-0.9-3-0.6-3.9,0.6c-0.9,1.3-0.6,3,0.6,3.9l20.3,14.8l-5.9,7.6l-20.2-14.8c-1.3-0.9-3-0.6-3.9,0.6
							c-0.9,1.3-0.6,3,0.6,3.9l20.1,14.7l-6.4,8.3l-20.2-14.8c-1.3-0.9-3-0.6-3.9,0.6c-0.9,1.3-0.6,3,0.6,3.9l20.1,14.7l-6.1,7.9
							l-21.3-15.5c-1.3-0.9-3-0.6-3.9,0.6c-0.9,1.3-0.6,3,0.6,3.9l21.1,15.4l-6,7.8c0,0-0.1-0.1-0.1-0.1l-21.5-15.7
							c-1.3-0.9-3-0.6-3.9,0.6c-0.9,1.3-0.6,3,0.6,3.9l21.5,15.7c0,0,0,0,0,0l-5.2,6.7l-20.8-15.2c-1.3-0.9-3-0.6-3.9,0.6
							c-0.9,1.3-0.6,3,0.6,3.9l20.7,15.1l-2.6,3.4l-13.5-10.2c-1.2-0.9-2.9-0.7-3.9,0.5l-0.5,0.7l-72.7-93.9
							c-0.6-0.8-1.5-1.2-2.5-1.1c-1,0.1-1.8,0.7-2.2,1.6c-0.6,1.3-15.2,32.2,15.6,80.1l35.5,45.3l-12.4,15c-0.5-0.3-1-0.4-1.5-0.4
							c-0.7,0-1.4,0.4-1.9,0.9l-25.4,28.6c-24.9-20.1-62-17.6-83.8,6.2c-11,11.9-16.5,27.6-15.7,44.2c0.9,17,8.6,33.2,21.3,44.5
							c7.8,6.9,17.7,10.7,28,10.7c0.9,0,1.7,0,2.6-0.1c11.3-0.7,21.6-5.7,29.1-14.2l28.9-32.5c1-1.2,0.9-2.9-0.2-4
							c-1.2-1-2.9-0.9-4,0.2L952.9,554c-6.5,7.3-15.5,11.7-25.2,12.3c-9.7,0.6-19.2-2.7-26.5-9.2c-11.5-10.2-18.6-25-19.4-40.5
							c-0.8-15.1,4.3-29.3,14.2-40.1c20.5-22.2,55.5-24,78.1-3.9c0.6,0.5,1.3,0.8,2,0.7c0.7,0,1.4-0.4,1.9-0.9l25.3-28.6l26.5,23.5
							l-19.5,22c-1,1.2-0.9,2.9,0.2,4c1.2,1,2.9,0.9,4-0.2l21.4-24.1c1-1.2,0.9-2.9-0.2-4l-1.7-1.5l7.6-9.5l7.6,9.7
							c-1.1,1-1.3,2.8-0.3,3.9l77.5,90.1c7.4,8.6,17.6,13.8,28.9,14.6c1.1,0.1,2.2,0.1,3.2,0.1c10.1,0,19.8-3.6,27.5-10.2
							c12.8-11,20.8-27.1,21.9-44.1C1209.1,501.3,1203.8,485.5,1193,473.4z M1060,405.6c1.2,0.9,3,0.7,3.9-0.5l55.2-71.7
							c1.6-2.1,2.3-4.7,1.9-7.3c-0.4-2.6-1.8-4.9-3.9-6.4l-11.5-8.4c-1.3-0.9-2.1-2.3-2.3-3.9c-0.2-1.6,0.2-3.1,1.2-4.4l4.6-5.8
							l17.2,12.8c7.4,5.9,8.7,16.8,2.9,24.3l-65.4,82.6l-15.6-20.2L1060,405.6z M969.3,304l106.1,137l-21.9,18.8L986,373.7
							C963.8,339.2,966.7,313.9,969.3,304z M1029.8,459.6l-21-18.6l11.7-14.1l17.5,22.4L1029.8,459.6z M1202.4,517.5
							c-1,15.5-8.3,30.2-20,40.2c-7.4,6.4-16.9,9.5-26.7,8.8c-9.8-0.7-18.7-5.2-25.1-12.7l-75.6-87.9l26-22.4c0,0,0,0,0,0l0.8-0.7
							l24.9,28.9c1,1.2,2.8,1.3,4,0.3c22.9-19.7,57.9-17.4,78,5.1C1198.5,488.1,1203.4,502.4,1202.4,517.5z"/><path fill="#dd6a26" d="M1174.3 491c-10.2-11.9-27.3-15.7-41.6-9.4-3 1.3-5.2 3.9-5.9 7.1-.7 3.1.1 6.3 2.2 8.8l20.9 24.2c4 4.6 9 6.5 13.8 6.5 3.2 0 6.3-.8 8.9-2.2 7.8-4 11.4-12.1 9.3-20.5C1180.5 500.2 1177.9 495.3 1174.3 491zM1169.9 521.1c-4.2 2.2-10.9 2.7-15.8-3l-20.9-24.2c-.9-1.1-1.3-2.5-1-3.9.3-1.4 1.3-2.6 2.7-3.2 3.9-1.7 8-2.5 12.1-2.5 8.6 0 17.1 3.7 23 10.5 3.1 3.6 5.2 7.7 6.4 12.3C1178.1 514 1174 519 1169.9 521.1zM1041.2 415.3c-3.4.1-6 2.9-6 6.3.1 3.4 2.9 6 6.3 6 3.4-.1 6-2.9 6-6.3C1047.4 417.9 1044.6 415.2 1041.2 415.3z"/></g></g></svg>