<svg xmlns="http://www.w3.org/2000/svg" enable-background="new 0 0 135 135" viewBox="0 0 135 135"><rect width="128" height="3.16" x="3.5" y="117.371" fill="#7a8490"/><path fill="#f2d0af" d="M79.7232132,38.3134995c-0.0432663-13.1748219-13.2819977-23.8444557-29.6076813-23.8444557
				S20.5511189,25.1386776,20.5078583,38.3134995H79.7232132z"/><rect width="111.922" height="13.91" x="13.48" y="103.46" fill="#cc6da6"/><rect width="103.161" height="57.713" x="17.86" y="45.747" fill="#ba548c"/><rect width="103.161" height="1.415" x="17.86" y="54.354" opacity=".08"/><rect width="103.161" height="1.415" x="17.86" y="63.25" opacity=".08"/><rect width="103.161" height="1.415" x="17.86" y="72.147" opacity=".08"/><rect width="103.161" height="1.415" x="17.86" y="81.043" opacity=".08"/><rect width="103.161" height="1.415" x="17.86" y="89.939" opacity=".08"/><rect width="103.161" height="1.415" x="17.86" y="98.836" opacity=".08"/><rect width="112.025" height="9.939" x="13.428" y="35.808" fill="#44433f"/><rect width="105.402" height="3.982" x="15.619" y="94.854" fill="#cc6da6"/><rect width="105.402" height="3.982" x="15.619" y="85.957" fill="#cc6da6"/><rect width="105.402" height="3.982" x="15.619" y="77.061" fill="#cc6da6"/><rect width="105.402" height="3.982" x="15.619" y="68.165" fill="#cc6da6"/><rect width="105.402" height="3.982" x="15.619" y="59.268" fill="#cc6da6"/><rect width="105.402" height="3.982" x="15.619" y="50.372" fill="#cc6da6"/><rect width="21.618" height="37.13" x="94.027" y="57.724" fill="#f2d0af"/><rect width="17.952" height="33.464" x="95.86" y="59.557" fill="#44433f"/><rect width="1.491" height="37.13" x="104.091" y="57.724" fill="#f2d0af"/><rect width="20.011" height="1.491" x="94.831" y="69.229" fill="#f2d0af"/><rect width="20.011" height="1.491" x="94.831" y="81.21" fill="#f2d0af"/><rect width="21.618" height="37.13" x="66.442" y="57.724" fill="#f2d0af"/><rect width="17.952" height="33.464" x="68.275" y="59.557" fill="#44433f"/><rect width="1.491" height="37.13" x="76.506" y="57.724" fill="#f2d0af"/><rect width="20.011" height="1.491" x="67.245" y="69.229" fill="#f2d0af"/><rect width="20.011" height="1.491" x="67.245" y="81.21" fill="#f2d0af"/><rect width="41.736" height="71.596" x="15.882" y="45.711" fill="#44433f"/><g><rect width="24.914" height="44.895" x="24.293" y="72.476" fill="#f2d0af"/><rect width="20.352" height="27.953" x="26.574" y="75.325" fill="#e2bb9a" transform="rotate(-.202 36.75 89.303)"/><rect width="17.462" height="25.064" x="28.018" y="76.77" fill="#44433f" transform="rotate(-.202 36.75 89.303)"/><path fill="#e2bb9a" d="M26.5244942,106.5868759v7.9702606h20.3507004v-7.9702606H26.5244942z M45.4312477,113.1116409
						H27.9684505v-5.0808029h17.4627972V113.1116409z"/><rect width="1.175" height="27.953" x="36.162" y="75.325" fill="#e2bb9a" transform="rotate(-.202 36.75 89.303)"/><rect width="19.085" height="1.175" x="27.207" y="83.993" fill="#e2bb9a"/><rect width="19.085" height="1.175" x="27.207" y="93.436" fill="#e2bb9a"/></g><g><rect width="54.307" height="3.738" x="9.647" y="45.711" fill="#f2d0af"/><rect width="10.234" height="15.757" x="52.5" y="101.55" fill="#f2d0af"/><rect width="6.267" height="52.097" x="54.484" y="49.453" fill="#e2bb9a"/><rect width="10.234" height="15.757" x="10.654" y="101.55" fill="#f2d0af"/><rect width="6.267" height="52.097" x="12.638" y="49.453" fill="#e2bb9a"/></g><g><path fill="#944e20" d="M40.4957542 25.350359c.6390266.5438671.9587173 1.3785553.9587173 2.5047817 0 1.1262245-.3282433 1.950222-.9847336 2.4719925-.6568451.5217705-1.6590424.7826538-3.0065956.7826538H36.249958v2.5432739h-2.0346909v-9.1174335h3.221859C38.8370667 24.5356274 39.8567276 24.8072052 40.4957542 25.350359zM39.002079 28.9378834c.2434235-.2744274.3653107-.6743088.3653107-1.2003555s-.158596-.9002666-.4761505-1.1219482c-.3175507-.2216816-.8108101-.3321648-1.4804878-.3321648H36.249958v3.0650425h1.3696442C38.2978325 29.3484573 38.7586594 29.2115993 39.002079 28.9378834zM49.6199608 24.5356274V26.34828h-4.5394707v1.8782291h4.0829201v1.7349567h-4.0829201v1.8917732h4.6827431v1.7998219h-6.7174339v-9.1174335H49.6199608zM55.4374809 26.2962456v7.3568153h-2.0350456v-7.3568153h-2.5824776v-1.7606182h7.2003593v1.7606182H55.4374809zM61.5615082 26.3546944c-.1956635.1610928-.2936745.3742199-.2936745.6393833 0 .2651615.1193962.4761505.3588982.632967.2387886.1561031.7908516.3414307 1.6565475.5538445.8649826.213129 1.5367966.5331764 2.0150909.9587173.4782867.4262543.7174301 1.0485306.7174301 1.8654003 0 .8175812-.3065033 1.4804859-.9195099 1.9894276-.6130142.5089378-1.4199028.7626953-2.4196053.7626953-1.443779 0-2.743927-.5345993-3.9000893-1.6038017l1.2128296-1.4876156c.9825974.861063 1.8914185 1.2915955 2.7264633 1.2915955.3735085 0 .6671829-.0805473.8803101-.2409267.2131271-.1610928.3196907-.3784962.3196907-.6522121 0-.2744293-.1133347-.4918327-.3392944-.6522121-.2263145-.1610928-.6739502-.3243256-1.3436279-.4896946-1.0610046-.2516193-1.8368874-.5802193-2.3283615-.9843788-.4911232-.4048691-.7366829-1.0392628-.7366829-1.9046021 0-.8653412.3107834-1.5325222.9323463-2.0022583.6219177-.4697342 1.3978004-.7042465 2.3283615-.7042465.6087341 0 1.2174644.1040688 1.8261986.3129196.6087265.2088509 1.1390533.5046635 1.5913239.8867245l-1.0303497 1.4869022c-.7915649-.5994663-1.6087952-.8995552-2.4523926-.8995552C62.0244751 26.1137676 61.7571716 26.194315 61.5615082 26.3546944z"/></g><g><path fill="#f2d0af" d="M36.7493706,54.8615341c-3.8229179,0-6.9219761,3.0991669-6.9219761,6.9223022
					c0,3.8227005,3.0990582,6.9218674,6.9219761,6.9218674c3.8230286,0,6.9220848-3.0991669,6.9220848-6.9218674
					C43.6714554,57.960701,40.5723991,54.8615341,36.7493706,54.8615341z"/><path fill="#44433f" d="M36.7493858,56.8599091c-2.7192574,0-4.9236317,2.2044525-4.9236317,4.9238625
					c0,2.7191048,2.2043743,4.9235573,4.9236317,4.9235573c2.7193375,0,4.9237099-2.2044525,4.9237099-4.9235573
					C41.6730957,59.0643616,39.4687233,56.8599091,36.7493858,56.8599091z"/></g></svg>