<svg xmlns="http://www.w3.org/2000/svg" viewBox="0 0 64 64"><ellipse cx="15.16" cy="18.42" fill="#fdf3e8" rx="9.9" ry="6.93" transform="rotate(-42.73 15.15 18.424)"/><ellipse cx="48.84" cy="18.42" fill="#fdf3e8" rx="6.93" ry="9.9" transform="rotate(-47.27 48.844 18.42)"/><path fill="#fdf0e2" d="M53.8,37.69C53.8,49.7,44,54,32,54S10.2,49.7,10.2,37.69,20,10.52,32,10.52a14.48,14.48,0,0,1,2.55.23c9.51,1.69,17.16,12.59,18.87,22.76A24.15,24.15,0,0,1,53.8,37.69Z"/><path fill="#fcecdb" d="M34,52c-12,0-21.8-4.3-21.8-16.31,0-6.83,3.17-14.7,8.12-20.2C14.24,21,10.2,30,10.2,37.69,10.2,49.7,20,54,32,54c7.94,0,14.89-1.87,18.7-6.59C46.7,50.66,40.71,52,34,52Z"/><path fill="#eac68f" d="M53.42,33.51A14.82,14.82,0,0,1,34.55,10.75C44.06,12.44,51.71,23.34,53.42,33.51Z"/><ellipse cx="22.09" cy="27.32" fill="#202c35" rx="2.97" ry="2.96"/><ellipse cx="41.91" cy="27.32" fill="#202c35" rx="2.97" ry="2.96"/><path fill="#202c35" d="M36.94,43.12a2,2,0,0,1-3.94,0v-3H31v3a2,2,0,0,1-3.94,0h-2A4,4,0,0,0,32,45.72a4,4,0,0,0,6.94-2.6Z"/><path fill="#202c35" d="M35.47,38.19a3.24,3.24,0,0,1-3.47,3,3.24,3.24,0,0,1-3.47-3c0-1.64,1.55-2,3.47-2S35.47,36.55,35.47,38.19Z"/></svg>